<?xml version="1.0" encoding="UTF-8" ?>
<!DOCTYPE svg PUBLIC "-//W3C//DTD SVG 1.1//EN" "http://www.w3.org/Graphics/SVG/1.1/DTD/svg11.dtd">
<svg width="671pt" height="606pt" viewBox="0 0 671 606" version="1.1" xmlns="http://www.w3.org/2000/svg">
<g id="#000000ff">
</g>
<g id="#fefefeff">
<path fill="#fefefe" opacity="1.00" d=" M 416.39 11.15 C 420.37 10.15 424.43 11.41 428.41 11.82 C 436.85 13.60 445.60 14.20 453.74 17.27 C 461.49 20.17 467.97 25.54 473.91 31.16 C 475.22 32.33 476.26 33.76 477.06 35.32 C 469.17 36.27 460.97 35.47 453.50 32.71 C 446.85 30.06 442.56 23.97 436.58 20.28 C 431.11 16.24 424.32 15.02 418.25 12.26 L 418.89 11.27 L 416.39 11.15 Z" />
<path fill="#fefefe" opacity="1.00" d=" M 237.13 16.41 C 239.50 16.17 241.81 15.56 244.10 14.94 C 244.79 15.19 246.17 15.69 246.86 15.94 C 246.25 16.32 245.65 16.71 245.06 17.11 C 238.56 20.65 231.00 22.36 225.37 27.37 C 220.80 31.49 216.63 36.48 210.63 38.53 C 204.34 41.16 197.50 41.48 190.84 42.32 C 189.46 42.76 188.46 42.32 187.84 41.01 C 194.53 33.42 202.17 26.08 211.88 22.58 C 220.06 19.70 228.44 17.11 237.13 16.41 Z" />
<path fill="#fefefe" opacity="1.00" d=" M 485.29 30.32 L 485.94 29.58 C 497.16 33.07 508.18 38.13 517.03 46.02 C 520.88 49.44 524.76 53.20 526.47 58.20 C 527.30 59.35 526.79 61.14 525.16 60.94 C 519.90 60.79 514.43 61.13 509.39 59.37 C 505.32 57.89 502.61 54.31 500.25 50.86 C 495.53 43.99 489.40 38.18 484.92 31.14 L 485.29 30.32 Z" />
<path fill="#fefefe" opacity="1.00" d=" M 176.29 37.18 C 177.32 36.54 180.57 35.77 179.93 38.07 C 176.74 44.16 171.62 49.00 167.60 54.55 C 164.94 58.19 163.16 62.67 159.29 65.27 C 153.73 69.26 146.56 68.63 140.11 69.32 C 138.01 68.37 139.59 65.77 140.37 64.39 C 147.82 50.64 162.19 42.66 176.29 37.18 Z" />
<path fill="#fefefe" opacity="1.00" d=" M 447.09 39.48 C 452.43 39.48 457.56 41.33 462.89 41.59 C 467.95 42.16 473.04 42.05 478.12 42.04 C 481.48 41.91 484.43 44.03 486.25 46.71 C 488.40 49.78 491.22 52.47 492.57 56.04 L 491.81 56.72 C 479.20 59.10 465.69 55.37 455.50 47.65 C 452.69 44.92 448.93 43.09 447.09 39.48 Z" />
<path fill="#fefefe" opacity="1.00" d=" M 345.23 53.24 C 351.86 49.82 357.32 43.72 365.06 42.81 C 372.82 41.75 379.82 46.84 384.52 52.52 C 388.85 57.81 393.82 62.93 400.37 65.35 C 408.48 68.50 417.70 68.03 425.74 64.87 C 432.77 62.17 441.25 60.62 448.00 64.90 C 455.10 69.36 457.36 77.92 461.19 84.86 C 465.56 93.46 474.55 99.00 483.89 100.62 C 491.83 102.05 500.15 99.83 507.92 102.36 C 514.88 104.81 518.59 112.21 519.38 119.15 C 520.20 126.31 520.84 133.86 524.81 140.10 C 529.09 146.84 536.41 151.23 544.06 153.10 C 550.11 154.69 556.67 156.07 561.27 160.66 C 566.49 165.88 567.11 174.04 565.52 180.90 C 562.56 191.25 563.23 203.81 570.99 211.99 C 576.38 218.60 585.02 221.11 590.88 227.15 C 595.57 231.91 596.27 239.57 593.67 245.54 C 590.68 252.35 585.58 258.33 584.39 265.86 C 582.81 274.59 586.28 283.48 591.89 290.10 C 596.37 295.35 601.96 300.68 602.33 308.05 C 602.68 315.23 597.64 321.09 592.58 325.55 C 587.17 330.25 582.19 335.95 580.37 343.05 C 578.29 350.61 579.91 358.71 583.44 365.57 C 586.08 371.33 589.05 378.39 585.78 384.50 C 582.24 392.48 573.26 395.32 566.19 399.28 C 556.81 404.18 550.53 414.42 550.53 425.01 C 550.19 430.41 551.38 435.75 551.23 441.15 C 550.78 443.14 550.47 445.16 550.20 447.19 C 547.88 449.83 546.01 453.17 542.63 454.61 C 534.77 458.58 525.57 458.01 517.56 461.53 C 514.99 462.61 512.87 464.46 510.47 465.84 L 510.53 466.51 L 509.76 466.40 C 505.56 470.44 501.83 475.23 500.60 481.06 C 498.40 488.81 498.01 498.58 490.32 503.20 C 483.60 507.76 475.29 505.48 467.78 505.27 C 465.57 504.88 463.33 504.68 461.10 504.78 C 458.91 505.29 456.66 505.45 454.43 505.67 L 454.46 506.07 C 452.45 506.49 450.50 507.12 448.54 507.72 L 448.52 508.65 C 448.08 508.57 447.20 508.41 446.76 508.32 L 446.58 509.13 C 445.38 509.75 444.23 510.43 443.08 511.12 C 440.87 513.00 438.82 515.06 437.00 517.31 L 436.78 517.50 C 434.77 520.61 432.97 523.83 431.17 527.06 C 428.46 531.56 424.93 536.17 419.53 537.43 C 411.77 539.32 404.03 536.32 397.13 532.98 C 386.05 527.82 371.89 529.35 362.48 537.27 C 356.11 542.11 350.78 549.84 342.04 550.10 C 333.34 550.92 326.74 544.49 320.64 539.31 C 312.35 532.07 300.36 529.92 289.88 532.87 C 282.10 535.21 275.44 541.15 266.99 541.13 C 261.92 541.33 257.26 538.66 253.84 535.12 C 247.89 529.52 245.17 521.23 238.59 516.21 C 230.54 509.72 219.45 508.22 209.54 510.32 C 202.75 511.63 194.80 512.71 188.96 508.10 C 185.71 505.14 182.48 501.70 181.42 497.32 C 179.35 491.29 177.78 485.00 174.51 479.48 C 171.57 474.50 166.75 470.96 161.64 468.43 C 153.42 464.56 143.53 466.86 135.54 462.41 C 131.58 460.01 127.92 456.56 126.63 451.98 C 124.31 443.84 126.15 435.29 125.00 427.03 C 122.84 418.18 116.21 410.60 107.88 406.97 C 101.61 403.98 94.33 401.90 90.06 396.02 C 85.83 389.84 86.85 381.63 89.86 375.16 C 93.59 367.18 95.08 357.69 91.52 349.38 C 87.73 339.54 77.85 334.34 71.74 326.22 C 68.98 321.63 68.71 315.62 70.76 310.70 C 73.87 303.53 80.60 298.65 83.51 291.36 C 85.81 285.86 85.89 279.66 84.69 273.88 C 82.91 264.40 74.13 257.84 73.19 248.07 C 72.24 242.41 75.95 237.43 79.88 233.82 C 85.21 229.15 91.89 226.04 96.29 220.33 C 102.76 212.59 104.06 201.60 101.33 192.09 C 99.69 186.94 98.45 181.45 99.42 176.04 C 100.72 171.68 104.10 168.17 107.96 165.90 C 115.10 162.47 123.20 161.16 129.92 156.83 C 137.91 150.82 143.90 141.30 143.54 131.04 C 143.29 124.09 144.24 115.79 150.48 111.52 C 157.19 106.34 166.07 107.38 174.00 106.83 C 184.84 106.37 195.13 99.81 200.14 90.20 C 203.69 83.48 204.89 75.11 211.35 70.30 C 216.75 65.45 224.46 66.87 230.96 67.99 C 238.14 69.67 245.59 71.65 252.99 70.12 C 257.59 69.31 261.73 67.03 265.81 64.86 C 270.87 60.84 274.42 55.42 278.57 50.56 C 282.52 45.92 288.84 43.41 294.90 44.59 C 305.33 45.88 312.55 55.10 322.92 56.58 C 330.43 57.62 338.51 57.03 345.23 53.24 M 363.47 49.77 C 358.88 51.33 355.01 54.33 351.00 56.96 C 341.83 63.02 330.14 64.05 319.53 62.22 C 310.76 60.63 304.15 54.03 295.88 51.23 C 292.31 49.82 288.25 50.85 285.44 53.33 C 279.11 58.69 274.79 66.20 267.67 70.67 C 257.02 77.58 243.34 77.47 231.43 74.34 C 226.79 73.56 221.72 71.92 217.18 73.85 C 211.24 77.22 210.00 84.45 207.36 90.17 C 204.76 97.03 198.65 101.51 193.46 106.33 C 185.56 113.15 174.53 112.05 164.86 113.19 C 159.69 113.43 153.76 115.27 151.45 120.36 C 148.89 127.00 149.83 134.33 148.22 141.18 C 146.43 149.47 140.60 156.10 134.05 161.13 C 126.90 166.95 117.08 167.49 109.55 172.65 C 106.26 174.82 104.57 179.00 105.56 182.85 C 107.55 192.34 109.69 202.27 107.42 211.91 C 105.11 221.12 98.07 228.15 90.60 233.55 C 85.70 236.73 80.11 240.76 79.42 247.03 C 80.35 253.23 84.97 257.89 87.61 263.37 C 92.25 272.12 92.36 282.67 89.93 292.08 C 87.53 301.66 77.83 307.31 75.77 317.02 C 75.36 321.35 78.56 324.81 81.48 327.56 C 87.71 333.32 94.52 339.17 97.52 347.38 C 100.57 356.30 100.38 366.31 96.86 375.08 C 95.27 379.97 92.29 385.33 94.67 390.47 C 96.94 395.61 102.66 397.39 107.36 399.54 C 117.11 403.64 125.72 411.28 129.80 421.15 C 132.44 428.31 132.99 436.97 128.70 443.62 C 126.44 446.72 131.56 447.14 132.48 449.46 C 134.15 452.85 136.54 456.23 140.37 457.36 C 147.98 459.50 156.16 459.25 163.53 462.33 C 170.17 465.17 175.62 470.24 179.92 475.95 C 184.77 482.53 185.21 491.08 188.87 498.23 C 191.34 502.68 196.63 506.14 201.85 504.81 C 208.81 503.45 215.95 503.11 223.02 503.42 C 232.33 504.04 241.12 508.88 247.15 515.91 C 250.80 519.97 253.51 524.75 256.94 528.98 C 259.35 531.98 262.99 534.34 266.98 534.02 C 272.76 533.57 277.57 529.95 282.91 528.05 C 297.57 522.10 315.22 525.51 326.94 536.04 C 331.26 540.22 337.14 544.51 343.49 542.63 C 351.32 539.70 356.19 532.28 363.43 528.37 C 372.87 522.94 384.43 522.85 394.81 525.21 C 402.14 527.04 409.04 532.65 416.95 530.58 C 422.95 529.08 424.97 522.57 428.05 517.98 C 434.08 509.38 442.48 501.53 453.11 499.48 C 461.35 498.22 469.70 499.17 477.97 499.53 C 482.22 499.62 487.08 498.21 489.16 494.15 C 493.60 486.38 492.61 476.46 498.21 469.18 C 502.81 463.20 508.50 457.63 515.53 454.65 C 524.50 451.62 534.36 451.36 542.86 446.95 C 544.45 446.29 544.25 444.45 544.31 443.06 C 544.30 435.00 543.74 426.93 544.29 418.89 C 545.21 408.68 552.45 400.32 560.50 394.61 C 566.56 390.36 574.95 388.66 578.75 381.77 C 581.28 377.58 579.41 372.62 577.51 368.59 C 572.62 359.00 571.99 347.46 575.13 337.23 C 578.57 326.64 589.46 321.23 594.57 311.68 C 595.72 309.67 595.69 307.19 594.66 305.15 C 591.55 298.30 585.25 293.64 581.79 287.02 C 578.43 280.95 577.44 273.88 577.72 267.04 C 577.61 256.63 585.31 248.52 588.23 238.99 C 588.62 234.50 585.73 230.29 582.06 227.96 C 574.14 222.84 565.82 217.34 561.14 208.88 C 556.38 200.12 556.91 189.69 558.70 180.19 C 559.61 175.48 560.34 169.89 556.93 165.96 C 552.94 161.31 546.48 160.72 541.01 158.87 C 530.79 155.76 521.98 148.38 517.02 138.94 C 513.17 131.61 514.45 122.91 511.44 115.33 C 509.78 111.45 506.49 107.73 502.06 107.27 C 496.05 106.50 489.96 106.81 483.93 106.30 C 471.00 105.53 459.42 96.57 453.94 85.07 C 450.99 79.38 448.58 72.48 442.42 69.49 C 438.57 67.51 434.28 68.90 430.51 70.31 C 421.53 73.29 411.77 74.08 402.45 72.39 C 392.33 70.10 384.56 62.54 377.85 55.06 C 374.32 51.17 368.87 47.72 363.47 49.77 Z" />
<path fill="#fefefe" opacity="1.00" d=" M 207.06 46.90 C 210.90 46.30 214.56 44.78 218.47 44.55 C 215.97 49.18 211.24 51.82 207.44 55.24 C 198.41 61.73 187.02 64.76 175.95 64.15 C 174.33 64.52 173.08 62.32 174.10 61.11 C 175.92 57.98 178.10 55.09 180.15 52.11 C 181.21 50.47 182.79 49.10 184.79 48.81 C 192.14 47.52 199.71 48.34 207.06 46.90 Z" />
<path fill="#fefefe" opacity="1.00" d=" M 365.44 57.52 C 366.61 56.91 367.99 57.10 369.07 57.84 C 374.49 61.29 378.23 66.67 383.00 70.88 C 387.41 74.77 392.45 78.18 398.16 79.81 C 406.39 80.56 414.69 80.47 422.96 80.28 C 427.97 80.29 432.31 77.46 437.10 76.48 C 438.87 76.07 440.73 76.91 441.75 78.38 C 445.66 83.79 446.61 90.88 451.17 95.88 C 457.81 102.95 464.94 110.85 474.88 112.84 C 482.92 113.77 491.06 113.70 499.13 114.27 C 502.12 114.55 504.44 116.99 505.25 119.77 C 507.10 126.17 506.53 133.01 508.41 139.41 C 509.74 143.92 512.53 147.85 515.87 151.11 C 521.61 156.85 527.54 163.05 535.52 165.52 C 540.47 167.32 546.04 167.57 550.55 170.47 C 552.77 171.86 552.80 174.71 552.18 176.98 C 550.27 185.89 551.03 195.04 551.01 204.07 C 550.95 206.49 551.44 208.94 552.77 210.99 C 558.33 220.25 566.61 227.61 575.76 233.23 C 577.72 234.69 580.67 236.12 580.59 238.96 C 578.67 246.43 571.99 252.01 571.54 259.95 C 570.93 268.26 570.20 276.80 571.97 285.00 C 574.09 293.49 581.47 298.84 586.30 305.68 C 587.79 307.59 587.86 310.38 586.26 312.25 C 581.03 319.29 572.93 324.03 569.19 332.19 C 565.13 340.51 566.68 350.04 566.60 358.97 C 566.41 364.58 569.04 369.59 571.56 374.41 C 572.19 376.10 573.86 378.52 572.03 380.01 C 566.56 384.02 560.00 386.36 554.76 390.70 C 549.00 396.20 542.52 401.50 539.41 409.06 C 536.94 414.73 537.43 421.04 537.05 427.07 C 535.26 428.55 534.93 425.67 534.19 424.72 C 532.50 420.82 529.97 417.21 529.10 413.01 C 533.49 401.78 538.89 390.96 543.63 379.87 C 544.07 378.35 545.59 376.48 544.15 375.03 C 539.90 374.18 535.52 374.94 531.25 374.29 C 534.32 363.58 538.80 353.26 540.63 342.20 C 546.12 320.28 545.27 297.53 544.21 275.17 C 541.39 251.86 534.46 229.05 523.65 208.19 C 510.40 182.85 491.29 160.72 468.71 143.23 C 446.35 125.43 420.26 112.10 392.43 105.42 C 387.44 104.16 382.53 102.51 377.42 101.79 C 365.96 100.20 354.47 98.51 342.89 98.26 C 324.69 97.80 306.28 98.45 288.50 102.66 C 267.23 107.23 246.42 114.45 227.61 125.47 C 206.79 137.17 188.12 152.52 172.37 170.45 C 169.28 174.61 165.87 178.51 162.62 182.55 C 148.34 201.49 137.75 223.17 131.48 246.04 C 129.47 253.89 127.93 261.85 126.39 269.81 C 124.41 287.08 124.03 304.54 125.64 321.86 C 127.51 334.07 129.92 346.23 133.53 358.05 C 135.19 363.51 137.42 368.78 138.74 374.34 C 135.29 374.90 131.66 374.05 128.33 375.22 C 127.99 376.22 128.06 377.19 128.56 378.12 C 133.58 388.48 139.04 398.66 143.65 409.19 C 142.81 412.52 141.41 415.76 139.80 418.81 C 139.36 418.88 138.48 419.01 138.04 419.08 C 136.28 415.05 134.27 411.07 131.02 408.01 C 125.21 402.08 119.38 395.58 111.24 392.92 C 107.88 391.28 102.36 390.60 102.01 386.00 C 102.74 381.80 105.16 378.09 105.87 373.87 C 107.74 366.70 106.24 359.31 106.64 352.04 C 106.90 346.46 104.58 341.13 101.29 336.75 C 97.01 330.73 90.82 326.49 85.84 321.11 C 84.39 319.64 83.35 317.41 84.67 315.50 C 88.38 309.11 94.40 304.22 97.25 297.30 C 99.04 293.11 98.65 288.47 98.80 284.04 C 98.79 278.55 99.01 273.02 98.19 267.58 C 96.80 260.17 90.73 254.95 88.12 248.07 C 87.30 245.33 90.18 243.53 91.98 242.05 C 96.52 239.01 100.73 235.53 104.54 231.61 C 109.63 227.26 113.90 221.54 115.40 214.94 C 115.81 206.36 116.18 197.71 115.33 189.16 C 115.12 185.78 111.88 181.60 114.69 178.71 C 122.73 174.10 133.08 173.68 139.79 166.70 C 145.05 161.10 151.80 156.35 154.59 148.90 C 157.86 140.95 155.57 131.91 158.79 123.96 C 161.20 119.80 166.93 120.64 171.01 119.99 C 180.74 119.97 191.64 119.35 199.03 112.15 C 204.96 106.11 212.20 100.73 215.32 92.57 C 216.88 89.08 217.66 85.19 219.86 82.01 C 221.86 79.30 225.44 80.84 228.07 81.53 C 235.45 83.98 243.31 83.41 250.96 83.52 C 258.45 83.55 266.36 82.15 272.27 77.24 C 278.18 72.18 283.83 66.78 288.81 60.80 C 290.11 58.78 292.72 57.96 294.87 59.16 C 303.25 62.72 310.33 70.19 320.03 69.83 C 329.77 69.53 340.08 71.21 349.30 67.26 C 355.19 64.88 359.51 59.82 365.44 57.52 Z" />
<path fill="#fefefe" opacity="1.00" d=" M 535.59 62.86 C 538.45 61.81 540.78 64.64 543.13 65.88 C 551.89 71.97 559.76 79.51 565.72 88.38 C 568.12 92.59 571.15 96.95 570.99 102.00 C 566.02 101.83 561.57 99.34 556.91 97.92 C 553.14 96.83 550.11 94.03 548.24 90.64 C 544.71 84.33 542.27 77.49 539.16 70.97 C 537.91 68.29 536.37 65.72 535.59 62.86 Z" />
<path fill="#fefefe" opacity="1.00" d=" M 494.60 66.41 C 500.83 65.83 506.99 67.47 513.11 68.46 C 519.58 69.72 526.78 70.46 531.80 75.21 C 534.92 78.34 537.47 82.50 537.62 87.02 C 532.94 89.34 526.45 90.62 522.00 87.08 C 515.54 82.54 509.19 77.86 502.85 73.16 C 500.02 71.01 496.79 69.27 494.60 66.41 Z" />
<path fill="#fefefe" opacity="1.00" d=" M 127.47 71.44 C 127.90 71.17 128.77 70.64 129.21 70.38 C 131.74 71.28 129.73 73.75 129.22 75.34 C 125.24 83.57 122.79 92.46 118.57 100.57 C 114.90 106.95 107.17 108.47 100.83 110.92 C 99.29 111.29 97.10 112.80 96.22 110.67 C 100.92 94.04 113.67 81.13 127.47 71.44 Z" />
<path fill="#fefefe" opacity="1.00" d=" M 165.51 73.72 C 167.41 73.78 170.80 71.64 171.52 74.21 C 162.16 81.29 153.30 89.06 143.65 95.76 C 140.15 98.39 135.39 97.23 131.45 96.43 C 129.36 95.97 129.29 93.55 130.10 91.97 C 131.58 87.17 134.58 82.52 139.37 80.52 C 147.65 76.83 156.68 75.42 165.51 73.72 Z" />
<path fill="#fefefe" opacity="1.00" d=" M 538.26 96.61 C 542.03 96.75 545.33 98.74 548.60 100.42 C 555.28 104.08 562.35 106.99 569.54 109.49 C 573.46 110.80 577.34 113.17 579.02 117.12 C 580.59 120.81 581.45 124.99 580.95 128.99 C 580.22 130.91 577.96 130.01 576.54 129.64 C 559.85 124.55 546.96 111.28 538.26 96.61 Z" />
<path fill="#fefefe" opacity="1.00" d=" M 305.50 104.79 C 319.92 103.33 334.46 103.24 348.94 103.70 C 358.46 103.52 367.79 105.66 377.10 107.31 C 383.73 108.97 390.58 109.73 397.00 112.14 C 440.53 125.06 480.19 152.40 505.86 190.10 C 515.94 203.65 523.17 219.07 529.15 234.80 C 531.56 242.49 534.67 250.05 535.60 258.12 C 540.71 280.02 541.11 302.83 538.55 325.11 C 535.57 341.44 532.01 357.92 524.86 373.00 C 524.09 375.72 518.29 375.48 519.52 372.07 C 527.76 352.12 533.48 330.95 534.54 309.31 C 534.68 300.28 534.63 291.23 534.26 282.21 C 533.18 273.02 531.51 263.90 529.58 254.86 C 518.31 211.20 491.38 171.63 454.44 145.68 C 440.45 136.68 425.97 128.30 410.39 122.37 C 396.04 117.06 381.26 112.75 366.12 110.49 C 358.41 109.88 350.80 108.22 343.05 108.27 C 326.55 107.57 309.96 108.93 293.81 112.43 C 287.33 113.41 281.08 115.38 274.85 117.37 C 260.30 120.99 246.68 127.51 233.55 134.60 C 205.62 149.59 181.73 171.84 164.76 198.61 C 142.81 232.58 132.51 273.84 135.70 314.15 C 136.73 334.33 143.27 353.71 150.42 372.45 C 151.75 375.03 147.01 375.34 145.76 374.28 C 142.26 368.28 140.52 361.46 138.42 354.90 C 134.75 344.98 133.05 334.50 131.19 324.14 C 129.93 313.81 130.12 303.37 130.14 292.98 C 129.74 272.04 135.07 251.45 141.86 231.80 C 148.44 215.37 156.57 199.41 167.35 185.32 C 178.71 170.24 191.94 156.43 207.19 145.24 C 215.62 139.24 224.19 133.38 233.36 128.55 C 255.62 116.13 280.43 108.84 305.50 104.79 Z" />
<path fill="#fefefe" opacity="1.00" d=" M 104.49 116.67 C 112.79 113.40 120.15 108.22 128.36 104.76 C 128.51 108.67 125.45 111.38 123.54 114.44 C 115.71 125.53 105.26 135.67 91.97 139.65 C 90.68 139.93 88.13 141.12 87.87 138.94 C 87.48 134.31 87.88 129.31 90.19 125.19 C 93.28 120.16 99.46 118.90 104.49 116.67 Z" />
<path fill="#fefefe" opacity="1.00" d=" M 583.45 106.47 C 586.91 107.67 589.37 110.51 592.01 112.91 C 602.83 123.12 610.82 137.01 612.04 152.02 C 612.48 153.23 612.00 156.42 610.13 154.84 C 604.24 150.10 598.12 145.60 592.55 140.48 C 590.35 138.59 588.85 135.90 588.87 132.96 C 588.50 126.57 587.65 120.16 585.53 114.11 C 584.72 111.59 583.42 109.18 583.45 106.47 Z" />
<path fill="#fefefe" opacity="1.00" d=" M 296.07 119.73 C 316.84 115.08 338.51 113.87 359.58 117.22 C 374.44 119.07 388.93 123.19 403.03 128.16 C 412.88 131.29 422.18 135.90 431.25 140.80 C 441.67 145.85 450.94 152.88 460.11 159.86 C 466.57 164.69 472.54 170.16 477.75 176.33 C 508.00 209.29 526.47 253.17 527.44 298.01 C 527.32 319.98 522.85 341.89 514.34 362.15 C 512.49 366.08 511.53 370.48 509.11 374.11 C 499.45 375.52 489.47 373.69 479.76 375.17 C 479.66 377.04 479.55 378.90 479.40 380.77 C 479.66 380.71 480.17 380.58 480.42 380.52 C 480.35 381.46 480.22 383.36 480.15 384.31 L 479.68 384.26 C 479.57 385.68 479.44 387.10 479.26 388.53 C 478.42 383.75 478.77 378.84 478.32 374.02 C 477.02 369.45 472.70 365.87 467.91 365.66 C 459.29 365.05 450.66 366.67 442.06 365.77 C 423.73 365.94 405.39 365.40 387.08 366.16 C 371.73 365.23 356.33 366.22 340.96 365.64 C 334.31 365.88 327.66 365.11 321.03 365.79 C 310.68 365.56 300.33 365.81 289.98 365.68 C 286.97 365.70 283.98 366.55 280.96 366.01 C 274.97 365.24 268.97 366.45 262.97 366.17 C 258.00 365.45 253.00 366.60 248.01 366.16 C 235.69 366.28 223.37 366.22 211.05 366.19 C 206.85 365.67 202.39 365.87 198.52 367.71 C 195.92 369.60 193.73 372.68 193.87 376.03 C 193.79 387.56 193.84 399.09 193.69 410.61 C 192.82 407.83 192.95 404.89 192.93 402.02 C 192.94 393.25 192.97 384.47 192.92 375.70 C 191.34 375.11 189.73 374.45 188.01 374.58 C 180.33 374.59 172.64 374.63 164.96 374.59 C 163.06 374.51 160.46 374.79 159.76 372.51 C 147.75 345.48 140.57 315.68 143.09 285.97 C 143.60 274.57 146.61 263.53 149.45 252.55 C 158.12 221.93 174.80 193.70 196.99 170.93 C 224.50 145.23 259.18 127.29 296.07 119.73 M 317.61 139.56 C 315.55 142.16 316.80 145.86 316.60 148.93 C 317.07 152.71 315.98 158.05 320.07 160.16 C 323.97 161.13 329.72 160.57 330.95 155.92 C 329.77 155.46 328.66 153.26 327.24 154.39 C 325.66 154.73 323.05 157.24 322.08 154.94 C 321.21 151.16 321.17 147.17 321.38 143.31 C 323.88 142.83 326.33 144.41 328.84 143.67 C 329.50 142.38 329.66 140.66 328.33 139.72 C 325.33 137.06 321.00 138.75 317.61 139.56 M 334.23 138.35 C 332.75 142.65 334.61 147.57 333.81 152.11 C 334.02 154.59 332.17 157.68 333.91 159.74 C 337.30 160.26 340.77 160.07 344.19 159.95 C 346.29 160.12 346.83 157.53 346.44 155.94 C 345.01 153.06 341.72 155.45 339.50 155.70 C 339.25 154.46 337.54 152.28 339.65 151.79 C 341.66 151.24 345.56 151.20 344.22 148.03 C 342.60 146.54 339.72 147.15 338.27 145.12 C 338.71 144.52 339.61 143.31 340.06 142.70 C 342.04 143.16 344.49 145.05 346.35 143.39 C 347.51 141.61 346.76 137.83 344.09 138.03 C 340.81 137.96 337.45 137.66 334.23 138.35 M 351.13 141.08 C 349.69 143.82 348.64 147.54 350.79 150.20 C 352.64 152.12 355.56 152.30 357.64 153.92 C 357.24 155.07 356.79 156.21 356.31 157.32 C 354.51 156.48 352.79 155.47 350.91 154.86 C 349.27 154.37 347.94 156.50 348.68 157.88 C 350.13 160.41 353.36 161.02 356.03 161.31 C 357.62 161.36 359.87 161.44 360.55 159.63 C 361.53 157.24 361.92 154.65 362.40 152.13 C 361.67 148.87 358.20 148.33 355.55 147.47 C 353.50 146.10 355.43 144.67 356.53 143.49 C 358.35 144.60 361.32 147.70 363.07 144.83 C 365.26 141.84 361.23 140.03 358.89 139.27 C 356.35 138.90 352.51 138.27 351.13 141.08 M 305.64 140.93 C 306.29 143.41 307.10 145.86 307.72 148.36 C 305.56 146.14 304.14 143.25 301.68 141.35 C 299.94 140.31 298.05 141.57 296.45 142.26 C 298.37 148.03 300.10 153.95 299.84 160.10 C 299.05 164.22 305.15 163.69 306.65 161.07 C 305.92 158.94 304.91 156.90 304.58 154.65 C 306.90 156.31 308.04 159.08 310.29 160.81 C 311.58 161.96 314.29 161.12 313.94 159.14 C 313.57 152.75 312.09 146.47 312.19 140.04 C 309.98 138.67 307.70 140.03 305.64 140.93 M 374.97 143.90 C 375.07 149.28 373.66 154.53 371.22 159.30 C 370.85 160.53 369.20 162.77 371.04 163.57 C 374.36 165.35 378.17 166.42 381.95 166.54 C 383.94 165.52 384.93 161.60 382.23 160.71 C 380.58 160.62 378.89 161.20 377.28 160.75 C 376.63 159.62 376.75 158.59 377.66 157.66 C 380.07 157.15 383.30 158.13 384.38 155.21 C 382.71 153.83 380.89 152.62 379.40 151.05 C 379.72 150.33 380.35 148.91 380.67 148.19 C 382.40 149.48 384.15 150.76 385.99 151.90 C 386.98 150.29 389.92 148.17 387.65 146.36 C 384.72 143.73 380.58 143.77 376.99 142.75 C 376.31 143.13 375.64 143.51 374.97 143.90 M 279.16 146.84 C 281.76 152.99 284.70 159.22 284.29 166.08 C 288.47 167.45 293.13 165.71 296.81 163.66 C 298.78 161.97 296.50 159.52 294.99 158.43 C 293.57 159.20 292.34 160.27 290.88 160.95 C 288.96 162.08 288.20 159.30 288.76 157.97 C 290.18 157.05 291.74 156.40 293.26 155.64 C 293.10 154.98 292.78 153.64 292.62 152.97 C 290.35 152.25 286.13 153.66 286.19 150.00 C 287.55 147.92 289.61 149.01 291.47 149.59 C 293.62 148.01 293.78 144.50 291.05 143.43 C 286.88 143.52 282.87 145.03 279.16 146.84 M 269.93 149.95 C 269.82 152.41 271.80 154.15 272.75 156.24 C 275.12 160.54 275.44 165.53 277.27 170.02 C 279.23 169.31 282.13 169.22 282.96 166.94 C 281.50 162.49 278.14 158.73 277.48 153.94 C 276.76 151.98 277.63 148.66 275.03 148.00 C 273.21 148.02 270.99 148.24 269.93 149.95 M 391.68 151.03 C 391.00 153.63 393.95 153.91 395.58 154.88 C 393.97 158.75 392.50 162.73 390.19 166.26 C 389.54 167.13 389.28 168.21 389.44 169.29 C 391.43 170.08 393.84 171.32 395.93 170.14 C 396.76 165.29 398.10 160.51 400.57 156.21 C 402.07 156.73 403.57 157.25 405.08 157.77 C 405.75 156.04 407.83 153.84 406.07 152.10 C 403.80 150.22 400.74 149.73 398.08 148.59 C 395.66 147.67 390.96 147.07 391.68 151.03 M 255.13 156.08 C 254.42 160.11 257.37 163.60 258.83 167.16 C 260.40 169.58 261.01 173.13 263.89 174.36 C 267.65 174.87 271.71 172.95 273.58 169.61 C 274.26 168.45 273.77 167.10 272.74 166.35 C 269.80 164.88 268.72 169.84 265.91 169.66 C 263.39 166.15 260.95 162.14 260.56 157.75 C 263.25 157.40 266.16 157.69 268.45 155.95 C 267.45 154.64 266.88 152.38 264.88 152.43 C 261.30 151.92 257.50 153.39 255.13 156.08 M 415.44 162.06 C 416.81 163.01 418.20 163.94 419.57 164.91 C 417.45 169.46 414.35 173.41 411.39 177.42 C 410.66 179.05 412.67 179.60 413.78 180.18 C 414.98 180.50 417.08 181.63 417.61 179.85 C 419.30 175.54 421.18 171.24 424.03 167.53 C 425.90 167.63 427.75 169.12 429.62 168.48 C 430.84 167.22 430.61 165.30 431.00 163.72 C 426.86 162.17 423.42 158.90 418.98 158.20 C 416.69 157.81 416.34 160.64 415.44 162.06 M 240.95 163.21 C 239.25 166.39 241.88 169.85 243.75 172.35 C 245.91 175.63 250.14 172.99 252.86 171.93 C 253.93 173.07 254.57 174.41 253.98 176.00 C 251.82 176.98 247.95 175.72 247.61 178.94 C 250.77 184.09 257.98 180.31 259.98 176.07 C 259.59 173.04 257.81 170.29 255.65 168.20 C 253.03 165.91 249.87 168.65 247.00 168.66 C 246.62 167.99 245.87 166.65 245.49 165.97 C 247.65 164.90 249.99 164.37 252.35 163.98 C 252.29 162.19 251.87 160.20 249.99 159.47 C 246.58 159.20 243.51 161.19 240.95 163.21 M 433.95 167.98 C 431.36 173.76 427.66 179.21 422.44 182.91 C 423.71 186.65 427.86 188.52 431.07 190.43 C 433.64 191.86 436.47 188.46 435.29 185.96 C 433.38 185.10 431.33 184.63 429.35 183.99 C 430.23 183.04 430.69 181.43 432.07 181.07 C 434.52 181.77 437.39 183.78 438.83 180.51 C 437.25 178.67 434.19 176.85 436.24 174.17 C 438.92 173.29 439.77 176.28 441.12 177.86 C 443.73 178.51 444.88 175.73 446.08 174.02 C 443.36 171.65 440.45 169.46 437.28 167.73 C 436.32 167.18 434.56 166.79 433.95 167.98 M 285.48 180.67 C 270.76 186.42 256.88 194.53 245.17 205.19 C 238.07 211.73 231.02 218.44 225.27 226.24 C 213.13 242.80 205.11 262.43 202.50 282.82 C 201.61 292.87 201.55 303.00 202.19 313.06 C 203.13 329.22 207.96 345.02 215.75 359.18 C 217.04 361.36 218.58 363.57 220.95 364.68 C 221.34 364.28 222.11 363.48 222.50 363.08 C 218.24 356.84 214.64 350.13 212.36 342.90 C 208.55 332.31 205.58 321.33 205.22 310.03 C 203.43 286.94 207.62 263.12 219.02 242.83 C 239.24 205.09 279.29 178.98 321.92 175.37 C 338.12 174.13 354.68 174.51 370.47 178.68 C 393.38 184.07 414.67 196.07 431.46 212.52 C 451.22 232.06 464.72 258.22 467.83 285.95 C 470.11 307.50 467.25 329.73 458.31 349.57 C 456.44 354.79 452.58 359.23 451.69 364.79 C 455.48 363.70 457.15 359.93 458.81 356.74 C 463.48 347.69 466.72 337.98 469.09 328.10 C 471.36 318.24 471.46 308.07 471.46 298.01 C 471.95 269.19 460.70 240.66 441.86 219.00 C 421.35 194.41 391.63 177.92 360.00 173.13 C 347.10 171.16 333.98 171.37 320.99 172.24 C 308.78 173.01 296.86 176.29 285.48 180.67 M 219.67 179.01 C 220.39 182.32 222.45 185.84 225.87 186.89 C 228.56 187.76 230.73 185.45 233.09 184.61 C 235.27 184.61 236.22 188.19 233.92 188.70 C 232.23 189.30 227.82 189.83 229.50 192.46 C 230.59 194.48 233.51 194.08 235.27 193.23 C 237.69 191.97 240.78 190.18 240.83 187.09 C 239.78 184.49 237.97 182.05 235.73 180.36 C 232.62 178.73 229.53 180.98 226.71 182.13 C 226.16 181.15 224.94 180.37 225.10 179.12 C 226.73 177.52 229.93 178.25 230.80 175.85 C 231.92 174.64 230.25 173.08 229.01 173.02 C 225.08 172.21 220.45 175.07 219.67 179.01 M 285.16 189.11 C 259.20 199.48 236.72 218.81 223.59 243.60 C 216.59 257.09 211.26 271.69 209.91 286.92 C 208.88 298.61 208.87 310.48 211.08 322.05 C 213.37 334.44 217.86 346.36 223.71 357.50 C 225.02 360.05 226.84 362.27 228.73 364.42 C 236.22 364.68 243.72 364.09 251.22 364.31 C 251.59 364.00 252.34 363.36 252.71 363.04 C 252.39 356.70 259.80 353.06 265.07 355.86 C 268.52 357.28 269.05 361.24 270.43 364.25 C 274.42 364.52 278.44 364.75 282.43 364.20 C 282.84 361.65 283.47 358.91 282.37 356.44 C 281.18 353.53 278.32 351.93 276.19 349.81 C 274.28 348.10 272.80 345.88 270.61 344.51 C 263.89 341.69 255.59 346.45 249.55 341.46 C 246.19 339.30 243.88 335.88 240.54 333.72 C 237.82 331.94 234.49 333.14 231.54 332.41 C 226.79 330.34 224.99 323.43 228.51 319.48 C 232.33 314.08 242.11 315.81 243.95 322.13 C 244.96 324.63 243.62 327.17 243.39 329.68 C 246.33 333.08 249.56 336.33 253.07 339.15 C 259.34 339.48 265.72 339.63 271.98 339.04 C 272.08 334.70 273.63 329.35 269.89 326.05 C 266.78 323.16 263.91 319.98 260.72 317.20 C 256.83 315.63 252.14 317.80 248.37 315.64 C 240.82 309.87 235.35 301.92 228.02 295.92 C 224.69 293.27 225.93 288.20 228.50 285.48 C 231.07 282.49 235.64 282.70 239.00 284.06 C 244.11 286.40 244.19 294.61 239.44 297.41 C 238.28 298.57 235.30 299.88 237.11 301.81 C 240.46 305.51 244.13 308.96 247.95 312.18 C 251.97 315.98 258.13 312.42 262.41 315.66 C 264.78 317.58 266.58 320.11 268.96 322.04 C 271.35 324.28 274.62 326.37 274.95 329.95 C 275.40 333.90 274.86 337.93 275.59 341.87 C 276.11 336.77 276.04 331.55 275.27 326.50 C 273.60 323.96 271.10 322.12 269.01 319.94 C 266.04 317.28 263.75 313.67 259.93 312.12 C 256.90 310.69 253.48 311.16 250.26 310.80 C 247.11 308.13 244.01 305.28 241.56 301.94 C 241.35 299.25 243.83 296.96 246.18 296.09 C 249.13 296.17 252.57 298.73 252.12 301.96 C 251.71 303.85 248.77 305.73 250.51 307.61 C 253.91 311.57 260.07 307.68 263.51 311.49 C 267.91 316.08 272.79 320.20 277.06 324.89 C 278.27 331.41 276.22 338.30 278.35 344.65 C 279.96 338.15 278.44 331.51 278.85 324.94 C 278.90 322.63 277.05 320.93 275.60 319.38 C 271.57 315.39 267.36 311.59 263.07 307.89 C 260.98 305.90 257.86 306.01 255.51 304.49 C 253.79 303.33 253.65 300.85 254.34 299.07 C 255.62 296.49 259.48 295.04 261.83 297.09 C 264.73 299.13 262.70 303.44 265.12 305.89 C 269.54 311.15 275.03 315.38 279.79 320.30 C 281.23 321.80 281.81 323.93 281.72 325.98 C 281.59 332.99 281.66 340.00 281.74 347.01 C 281.54 349.57 283.84 351.14 285.12 353.06 C 287.69 356.26 286.72 360.61 287.45 364.38 C 297.92 364.48 308.39 364.55 318.85 364.42 C 319.71 362.25 320.19 359.60 318.31 357.81 C 311.86 351.19 304.87 345.12 298.27 338.66 C 297.30 337.70 296.39 336.53 296.39 335.10 C 296.13 328.77 296.85 322.38 296.08 316.09 C 294.45 314.33 292.50 312.81 291.36 310.65 C 289.00 306.23 285.70 302.23 281.48 299.48 C 278.05 297.15 273.61 299.77 270.14 297.63 C 266.88 295.69 265.08 292.14 262.07 289.90 C 260.68 288.65 258.72 287.81 257.98 286.00 C 257.17 282.37 257.78 278.64 257.94 274.98 C 258.11 269.58 254.35 264.84 249.90 262.20 C 246.45 261.70 242.56 262.67 239.52 260.51 C 235.51 258.07 234.91 252.16 237.65 248.55 C 241.09 243.62 249.79 244.04 252.62 249.39 C 253.75 252.44 252.55 255.92 253.99 258.92 C 255.57 263.14 260.65 264.77 261.95 269.14 C 262.99 274.41 261.44 280.00 262.70 285.22 C 265.92 287.97 268.99 290.91 272.12 293.77 C 275.93 294.29 280.20 292.90 283.66 295.23 C 286.74 296.87 288.19 301.26 292.02 301.37 C 294.68 300.80 297.96 299.01 298.16 295.98 C 297.25 292.34 293.75 290.24 291.41 287.54 C 285.55 281.09 277.80 276.21 273.76 268.24 C 272.51 265.54 268.51 262.99 270.82 259.77 C 272.73 255.57 279.79 256.72 280.54 261.16 C 281.52 264.36 277.93 266.22 277.17 268.97 C 283.42 277.86 292.63 284.11 299.29 292.66 C 300.31 294.22 300.17 296.23 300.92 297.92 C 302.64 299.29 304.75 300.16 306.29 301.77 C 308.44 304.21 308.51 308.00 307.12 310.84 C 305.80 313.62 302.50 314.46 300.66 316.76 C 299.84 318.73 300.43 320.96 300.32 323.05 C 300.50 326.56 299.73 330.14 300.51 333.61 C 301.23 336.74 303.87 338.79 306.17 340.79 C 310.14 344.17 313.61 348.10 317.53 351.54 C 318.36 352.72 319.98 351.20 319.67 350.13 C 319.72 346.24 319.97 342.31 319.43 338.45 C 318.67 335.98 315.44 336.47 313.50 335.59 C 305.91 333.55 304.28 322.00 310.71 317.67 C 316.94 312.39 328.31 316.45 328.79 324.89 C 329.65 329.76 324.73 333.22 325.35 338.01 C 325.44 345.35 325.42 352.68 325.42 360.03 C 325.37 361.54 325.74 363.03 326.16 364.48 C 328.64 364.66 331.12 364.73 333.60 364.58 C 334.17 362.77 334.50 360.91 334.43 359.02 C 334.36 345.36 334.52 331.70 334.48 318.04 C 334.57 315.50 333.56 312.99 331.56 311.39 C 325.48 306.15 320.11 300.17 314.40 294.56 C 310.88 291.36 312.79 286.12 312.29 281.97 C 306.34 276.51 300.57 270.86 294.54 265.49 C 291.64 263.33 294.03 258.90 291.39 256.58 C 289.69 254.84 287.49 253.45 286.56 251.11 C 285.47 248.64 286.14 245.88 285.81 243.29 C 281.72 238.51 276.71 234.63 272.02 230.47 C 267.66 233.86 261.08 227.85 264.31 223.34 C 265.92 220.21 270.24 220.42 272.64 222.47 C 273.93 224.34 273.75 226.90 275.23 228.69 C 278.57 233.02 282.98 236.34 286.76 240.26 C 290.51 243.34 286.25 251.07 292.22 252.21 C 292.93 249.54 292.63 246.74 292.69 244.01 C 292.62 235.66 292.87 227.31 292.76 218.96 C 292.99 215.47 288.28 214.36 288.30 211.02 C 287.30 205.29 297.30 203.82 298.73 209.09 C 299.96 213.25 294.39 215.06 294.75 219.02 C 295.23 233.29 293.71 247.61 295.23 261.85 L 296.46 261.74 C 296.52 255.68 295.99 249.57 296.79 243.55 C 297.28 239.71 302.39 238.27 301.93 234.13 C 302.27 232.56 301.50 230.08 303.52 229.46 C 305.45 228.66 307.73 228.63 309.69 229.35 C 312.88 230.77 312.56 235.83 309.91 237.62 C 307.10 238.40 303.80 238.25 301.66 240.57 C 298.28 243.36 299.22 248.12 299.03 251.97 C 299.30 256.51 298.47 261.18 299.32 265.65 C 302.71 270.54 307.76 273.91 312.07 277.94 C 312.45 272.26 312.44 266.55 312.10 260.88 C 308.86 258.68 304.67 254.53 307.49 250.42 C 310.45 244.27 321.14 246.31 321.75 253.00 C 322.15 256.53 319.45 258.87 317.01 260.86 C 316.81 269.92 317.06 278.98 316.85 288.04 C 316.36 293.78 322.19 296.48 325.85 299.66 L 326.87 299.36 C 326.98 294.91 327.19 290.43 326.82 285.99 C 325.67 283.50 322.45 282.06 322.68 278.98 C 323.74 274.44 331.36 273.25 332.88 278.07 C 334.20 281.17 331.34 283.37 329.67 285.51 C 329.19 291.30 329.41 297.15 329.54 302.96 C 329.50 305.35 332.21 306.12 334.10 306.44 C 334.56 305.37 334.96 304.29 335.30 303.18 C 338.58 299.80 342.12 296.67 345.36 293.25 C 346.73 291.90 347.64 290.02 347.21 288.06 C 346.72 284.73 347.13 281.35 346.73 278.03 C 344.23 272.88 338.28 270.55 335.26 265.80 C 334.05 260.92 335.16 255.82 334.85 250.85 C 334.65 247.59 332.54 244.88 330.13 242.86 C 326.02 239.31 322.56 235.08 318.46 231.53 C 316.74 230.04 314.91 228.33 314.66 225.93 C 314.20 221.33 314.70 216.70 314.46 212.09 C 314.43 209.79 312.51 208.33 310.99 206.91 C 310.36 204.12 309.87 200.55 312.41 198.53 C 315.56 196.68 320.86 196.68 322.71 200.37 C 325.60 204.43 320.89 208.31 318.33 211.10 C 317.91 216.35 317.89 221.77 318.39 227.02 C 320.37 229.86 323.32 231.84 325.76 234.27 C 328.46 236.53 330.70 239.40 333.81 241.13 C 335.28 239.38 334.73 237.02 334.80 234.94 C 334.60 231.82 335.08 228.63 334.40 225.56 C 332.08 223.60 328.94 222.17 328.02 219.01 C 326.41 215.44 328.36 211.38 331.36 209.26 C 337.21 204.56 347.78 211.70 344.87 218.87 C 343.96 221.79 341.09 223.14 338.95 225.01 C 338.07 230.94 338.93 237.03 338.70 243.02 C 338.96 249.37 337.93 255.77 338.97 262.07 C 339.65 265.99 343.05 268.44 346.05 270.63 C 346.31 270.23 346.84 269.45 347.11 269.06 C 347.75 261.03 346.50 252.86 347.63 244.91 C 352.55 239.37 358.83 234.92 363.32 228.99 C 363.41 224.77 363.79 220.42 363.06 216.26 C 360.35 214.25 356.96 212.73 355.54 209.44 C 352.50 202.93 357.82 194.45 365.03 194.36 C 371.86 193.62 378.54 200.19 376.83 207.13 C 376.31 211.23 372.66 213.46 369.79 215.88 C 368.83 220.83 369.91 225.99 369.33 231.01 C 369.21 232.37 368.00 233.20 367.16 234.13 C 362.63 238.26 358.06 242.36 353.77 246.74 C 352.85 247.55 352.40 248.74 352.46 249.96 C 352.31 264.97 352.78 280.00 352.28 295.01 C 348.62 298.11 345.39 301.66 341.90 304.95 C 339.22 307.17 340.06 310.94 339.94 313.99 C 340.26 324.10 339.51 334.26 340.51 344.34 C 346.50 342.50 348.66 334.00 344.42 329.46 C 342.09 327.38 341.92 323.08 344.90 321.53 C 347.24 320.12 349.90 321.27 352.29 321.88 C 351.37 320.04 349.01 318.33 350.07 316.06 C 350.82 313.98 352.61 311.94 354.98 311.89 C 358.07 311.89 360.81 314.97 360.19 318.06 C 359.45 320.70 356.14 321.97 356.02 324.89 C 355.59 329.89 356.34 334.94 355.73 339.93 C 350.94 345.52 344.56 349.54 340.00 355.36 C 340.16 358.55 338.91 362.65 341.98 364.84 C 343.81 361.73 344.19 357.34 347.80 355.62 C 351.39 353.39 356.41 356.78 359.45 353.48 C 366.39 346.89 373.48 340.40 379.77 333.18 C 376.19 330.67 372.41 326.79 373.81 321.99 C 374.42 318.48 377.95 317.16 380.26 314.99 C 380.58 311.99 380.39 308.97 380.43 305.96 C 380.37 304.49 380.53 302.76 379.28 301.70 C 374.69 297.09 369.14 293.24 365.31 287.95 C 365.29 281.98 365.74 275.96 365.37 269.99 C 365.09 267.31 362.69 265.78 361.26 263.75 C 360.30 261.06 362.63 258.57 365.05 257.80 C 368.14 256.26 371.80 259.92 371.55 262.98 C 370.43 265.84 367.21 267.56 367.01 270.83 C 367.48 270.78 368.43 270.68 368.90 270.62 C 373.08 268.01 376.22 264.09 380.04 261.02 C 382.88 258.97 383.09 255.10 382.92 251.91 C 382.68 248.83 381.45 244.97 378.00 244.25 C 375.01 243.76 370.77 244.62 369.49 241.00 C 367.35 236.41 373.96 232.61 377.51 235.48 C 380.43 237.22 378.84 241.49 381.60 243.38 C 386.12 247.23 385.77 253.94 384.19 259.11 C 379.40 264.90 373.41 269.64 368.40 275.24 C 368.44 275.75 368.52 276.77 368.55 277.28 C 373.66 272.84 378.49 268.10 383.33 263.38 C 385.24 261.43 387.69 259.12 386.99 256.09 C 386.09 250.60 386.68 245.03 386.24 239.52 C 386.06 237.25 384.04 235.83 383.11 233.90 C 382.42 232.09 382.52 229.51 384.53 228.60 C 387.75 226.54 392.70 228.03 393.40 232.02 C 393.38 235.66 388.57 237.17 388.75 240.93 C 388.58 247.52 389.22 254.15 388.68 260.73 C 386.87 264.38 383.31 266.66 380.40 269.36 C 376.38 273.02 372.39 276.72 368.67 280.68 C 366.63 282.68 366.84 286.11 368.84 288.04 C 372.11 291.38 375.23 294.95 378.97 297.78 C 379.39 297.35 380.25 296.49 380.68 296.07 C 379.42 292.14 374.84 290.43 373.62 286.49 C 372.86 283.46 373.06 279.76 375.53 277.53 C 379.52 273.51 383.59 269.56 387.67 265.62 C 388.96 264.30 390.53 262.89 390.55 260.89 C 390.79 254.60 390.31 248.29 390.72 242.00 C 390.69 239.96 392.72 238.94 394.41 238.51 C 398.36 237.08 402.05 242.40 399.90 245.81 C 398.76 248.44 395.56 248.13 393.31 249.08 C 392.77 253.41 393.22 257.78 392.90 262.12 C 392.74 264.14 391.02 265.45 389.66 266.72 C 385.69 270.06 382.14 273.86 378.49 277.55 C 377.04 279.08 375.40 280.75 375.24 282.98 C 375.03 285.82 376.72 289.32 379.98 289.26 C 380.30 288.26 380.60 287.24 380.86 286.22 C 387.61 279.19 394.81 272.59 401.48 265.49 C 403.26 260.61 401.52 255.12 402.27 250.03 C 403.52 245.08 410.44 243.53 410.20 237.90 C 410.42 232.16 417.36 228.27 422.51 230.60 C 428.87 232.55 429.63 242.90 423.59 245.73 C 420.19 247.79 416.28 246.21 412.91 245.01 C 410.37 246.00 408.34 248.08 406.22 249.78 C 406.42 254.86 406.21 259.97 405.89 265.05 C 405.49 268.59 402.29 270.61 400.00 272.94 C 395.33 277.66 390.53 282.25 385.50 286.58 C 383.72 287.81 384.23 290.13 384.14 291.98 C 384.27 299.53 384.18 307.08 384.30 314.64 C 387.84 316.94 392.03 320.19 391.23 325.00 C 391.22 329.15 386.82 330.68 384.57 333.48 C 377.75 342.31 368.69 349.04 361.34 357.38 C 359.35 359.41 360.91 362.11 361.66 364.31 C 368.43 364.70 375.22 364.42 382.01 364.49 C 388.73 359.08 394.59 352.74 400.85 346.81 C 402.68 345.45 402.10 343.00 402.22 341.04 C 402.14 331.00 402.31 320.95 402.18 310.92 C 402.35 308.81 399.70 308.59 398.45 307.55 C 393.39 304.99 392.97 296.80 397.78 293.77 C 399.53 292.36 402.67 291.74 402.55 288.97 C 403.09 283.91 400.90 277.29 405.63 273.68 C 410.83 268.56 417.10 263.98 420.15 257.16 C 421.37 254.63 424.91 254.34 427.06 255.84 C 430.05 257.70 430.06 263.09 426.53 264.38 C 423.75 266.11 420.06 262.89 417.73 265.66 C 413.65 269.91 408.81 273.53 405.24 278.22 C 404.51 282.40 404.79 286.77 404.82 291.02 C 407.50 293.64 412.15 295.42 411.80 299.92 C 412.57 303.96 408.84 306.12 406.94 309.02 C 406.82 316.52 406.74 324.06 407.27 331.55 C 410.72 325.68 407.46 318.37 409.20 312.04 C 409.97 309.49 412.44 307.93 413.36 305.49 C 413.64 302.26 414.07 298.89 413.22 295.72 C 412.40 292.63 409.58 290.86 407.64 288.54 C 406.22 286.64 407.91 284.48 408.70 282.70 C 409.99 280.60 409.88 278.03 410.74 275.78 C 412.29 274.20 414.80 273.15 416.92 274.21 C 420.43 275.19 420.80 280.93 417.78 282.67 C 414.88 283.18 410.99 282.70 409.47 285.90 C 410.22 289.47 413.71 291.17 415.60 293.98 C 416.47 297.23 415.86 300.69 416.12 304.03 C 416.64 308.67 410.74 310.47 410.85 315.00 C 410.75 319.28 409.98 323.81 411.61 327.89 C 414.18 325.68 416.83 323.52 419.01 320.91 C 419.60 313.30 419.14 305.61 419.18 297.97 C 419.27 294.63 418.57 290.75 420.93 287.99 C 424.22 284.61 428.02 281.69 430.86 277.90 C 431.07 275.29 430.19 272.32 432.08 270.12 C 435.33 264.90 444.45 265.14 447.20 270.70 C 449.44 274.82 446.90 280.81 442.17 281.62 C 439.09 282.56 436.09 281.33 433.14 280.61 C 430.60 283.27 428.09 285.94 425.21 288.24 C 422.89 290.09 421.82 293.07 422.00 295.98 C 422.05 302.36 421.88 308.75 422.09 315.13 C 422.23 317.08 422.49 320.07 425.00 320.33 C 428.94 319.44 431.83 316.33 434.39 313.42 C 437.21 310.81 435.32 305.93 438.60 303.62 C 443.02 300.75 451.32 303.97 450.09 310.04 C 449.21 315.56 442.51 316.90 438.08 314.84 C 434.88 317.39 432.27 320.64 428.95 323.02 C 425.51 323.79 421.44 323.00 418.71 325.76 C 414.62 329.96 409.71 333.44 406.49 338.42 C 407.59 339.15 408.38 340.96 409.95 340.54 C 414.26 340.15 416.74 336.23 419.78 333.68 C 422.86 330.64 427.63 333.33 431.15 331.16 C 432.94 329.38 433.98 326.37 436.91 326.25 C 441.27 324.95 444.50 331.41 441.34 334.36 C 438.88 336.48 435.44 335.52 432.95 334.02 C 432.18 334.07 430.65 334.16 429.88 334.21 C 430.90 335.80 433.30 336.20 433.55 338.37 C 435.25 341.88 430.78 345.85 427.41 344.48 C 425.46 343.43 423.98 341.67 421.93 340.79 C 419.07 341.76 417.79 345.06 414.85 345.97 C 411.76 347.57 407.67 345.31 404.98 347.95 C 402.18 350.90 398.71 353.38 396.76 357.02 C 401.48 356.55 403.86 351.92 407.42 349.41 C 409.53 347.69 412.39 348.87 414.83 348.27 C 417.27 346.66 419.49 343.05 422.87 344.33 C 425.29 344.90 427.14 347.44 426.36 349.94 C 425.39 352.40 422.23 354.78 419.63 353.17 C 416.48 351.19 412.69 350.30 409.01 350.96 C 405.63 353.15 403.08 356.49 399.45 358.34 C 396.57 358.97 393.37 358.97 391.07 361.08 C 389.78 361.48 389.08 364.27 391.02 364.07 C 408.79 364.60 426.59 364.52 444.37 364.38 C 445.84 363.11 447.33 361.79 448.19 360.01 C 454.04 348.98 459.29 337.43 461.59 325.07 C 466.45 302.47 464.29 278.55 456.01 257.00 C 449.28 240.68 439.35 225.62 426.49 213.48 C 406.65 195.13 380.92 183.27 354.13 179.84 C 346.12 178.76 338.03 179.00 329.98 179.18 C 314.54 179.25 299.43 183.50 285.16 189.11 M 448.23 179.02 C 443.66 183.11 438.88 187.47 436.09 193.00 C 437.36 196.78 441.33 200.20 445.51 199.52 C 447.23 199.29 448.01 197.54 447.76 195.97 C 445.93 194.33 441.42 195.53 441.92 192.03 C 444.40 188.83 447.19 185.26 451.01 183.65 C 452.31 184.97 453.06 186.69 454.15 188.17 C 455.57 189.24 458.60 188.05 458.05 185.97 C 457.14 181.77 452.82 177.37 448.23 179.02 M 205.83 191.20 C 211.86 195.36 217.31 200.24 222.08 205.81 C 225.18 203.12 228.66 200.56 230.77 196.99 C 230.19 194.92 228.30 192.80 225.95 193.72 C 224.72 195.27 224.03 197.17 223.01 198.85 C 221.96 198.06 220.93 197.28 219.91 196.47 C 220.88 194.94 221.91 193.45 222.72 191.83 C 222.06 191.11 221.38 190.42 220.68 189.76 C 218.86 190.65 217.11 191.81 215.08 192.16 C 214.56 191.60 213.51 190.49 212.99 189.93 C 214.65 188.22 218.85 188.21 218.22 185.05 C 217.86 183.63 216.63 182.21 215.04 182.33 C 211.17 184.30 208.12 187.56 205.83 191.20 M 457.99 193.94 C 455.16 197.26 451.05 198.97 447.64 201.54 C 445.86 204.01 449.24 207.56 451.93 206.36 C 453.57 204.82 454.24 201.68 456.94 201.77 C 458.04 202.37 458.94 203.44 458.80 204.77 C 457.03 206.31 454.80 207.15 452.74 208.19 C 452.90 210.70 454.23 213.35 457.09 213.42 C 458.84 212.03 459.97 210.05 461.50 208.44 C 464.84 204.76 469.53 202.80 473.33 199.67 C 472.23 198.00 471.02 196.19 468.98 195.59 C 466.38 196.41 465.73 200.27 462.96 200.51 C 462.28 200.13 460.93 199.36 460.26 198.97 C 461.89 196.50 464.69 195.42 466.99 193.74 C 467.28 191.34 465.28 189.35 463.08 188.83 C 460.78 189.78 459.73 192.30 457.99 193.94 M 202.23 196.24 C 199.70 197.96 197.72 200.36 195.75 202.67 C 194.80 203.69 194.02 205.69 195.63 206.54 C 200.74 209.50 206.29 212.25 209.81 217.18 C 211.27 219.22 213.63 217.03 214.79 215.78 C 216.79 213.25 219.53 210.51 219.04 206.99 C 215.97 203.66 212.14 201.10 208.60 198.30 C 206.75 197.13 204.54 194.96 202.23 196.24 M 315.18 200.19 C 313.67 201.12 311.66 203.11 313.10 204.94 C 314.35 207.47 318.37 208.49 319.96 205.72 C 322.20 202.86 318.36 197.84 315.18 200.19 M 362.40 201.50 C 360.82 203.46 360.76 206.74 362.26 208.76 C 365.19 210.57 370.11 209.63 371.16 206.02 C 372.02 201.57 365.57 198.49 362.40 201.50 M 474.65 205.49 C 470.58 208.99 466.12 212.07 461.10 214.04 C 459.90 214.73 457.83 215.07 457.91 216.84 C 458.76 218.34 459.97 220.64 462.01 220.32 C 463.90 219.14 465.43 217.46 467.44 216.43 C 466.74 218.95 464.80 220.78 463.59 223.03 C 462.56 224.53 464.01 225.99 465.05 226.96 C 467.13 226.85 468.81 225.51 470.52 224.47 C 474.91 221.60 479.91 219.83 484.36 217.06 C 483.91 215.72 483.59 214.32 482.88 213.09 C 479.25 211.07 477.24 215.39 474.54 216.96 C 475.47 213.43 479.65 210.95 478.76 207.06 C 477.89 205.90 476.06 204.24 474.65 205.49 M 292.34 208.51 C 291.13 209.31 291.15 211.07 291.73 212.26 C 292.99 212.78 295.27 213.60 295.58 211.60 C 296.86 209.30 294.61 206.99 292.34 208.51 M 334.41 212.50 C 330.81 213.93 331.17 219.03 334.71 220.28 C 337.89 222.42 341.60 218.26 340.56 215.09 C 339.85 212.63 336.67 211.25 334.41 212.50 M 185.47 217.40 C 183.69 219.55 182.46 222.09 180.87 224.38 C 181.02 225.43 181.21 226.48 181.45 227.52 C 185.55 228.90 189.85 229.99 193.41 232.59 C 195.60 233.81 197.37 236.17 200.01 236.35 C 202.87 233.84 204.78 230.36 206.33 226.93 C 206.08 224.09 203.07 224.08 200.92 224.02 C 200.40 225.90 199.99 227.82 199.34 229.68 C 198.21 230.28 197.21 229.39 196.37 228.72 C 195.86 226.81 196.76 224.98 197.34 223.22 C 196.28 222.84 195.28 221.62 194.08 222.15 C 192.95 223.11 192.03 224.29 190.92 225.26 C 189.24 225.99 188.55 223.82 187.73 222.86 C 188.96 221.33 192.31 220.55 191.64 218.14 C 190.52 215.90 187.03 215.35 185.47 217.40 M 483.23 222.28 C 478.71 224.36 474.09 226.30 469.77 228.77 C 467.31 230.90 469.02 234.43 470.15 236.83 C 470.97 239.28 473.67 240.54 476.10 239.64 C 481.36 237.68 486.69 235.37 491.20 231.99 C 492.54 227.54 488.47 220.06 483.23 222.28 M 267.57 223.32 C 267.05 224.72 265.66 226.67 267.28 227.93 C 268.70 229.95 271.68 228.17 271.31 225.95 C 271.50 223.98 268.83 224.07 267.57 223.32 M 386.45 230.54 C 383.16 232.61 387.90 236.55 390.01 233.87 C 391.94 231.68 388.62 228.94 386.45 230.54 M 177.67 231.69 C 175.75 234.51 174.31 237.71 173.21 240.95 C 172.24 243.45 174.76 245.33 177.04 245.22 C 178.40 244.18 178.97 242.47 179.91 241.10 C 185.15 242.80 189.85 245.66 194.83 247.94 C 195.60 246.11 197.73 244.18 196.89 242.07 C 192.45 240.42 187.70 239.52 183.48 237.29 C 181.49 236.07 183.45 233.98 183.66 232.37 C 181.97 231.12 179.39 229.63 177.67 231.69 M 305.50 231.68 C 303.45 232.35 304.88 236.31 307.04 235.80 C 308.88 236.18 309.94 233.40 308.78 232.10 C 308.35 230.73 306.49 231.54 305.50 231.68 M 417.38 234.34 C 415.10 235.43 414.02 238.45 415.43 240.65 C 416.97 243.32 421.12 243.13 422.86 240.76 C 425.73 237.66 420.82 232.21 417.38 234.34 M 479.46 241.57 C 477.73 242.12 475.71 242.08 474.28 243.31 C 474.64 246.94 476.53 250.37 478.27 253.55 C 480.19 254.25 483.41 253.55 483.42 251.00 C 482.82 249.33 479.31 247.25 481.77 245.73 C 485.70 243.88 489.85 242.48 494.13 241.67 C 495.56 241.61 496.36 240.36 497.31 239.48 C 496.35 237.97 495.36 236.48 494.27 235.06 C 489.39 237.34 484.78 240.36 479.46 241.57 M 371.78 240.12 C 372.68 242.39 375.49 241.14 377.32 241.21 C 376.73 239.74 377.03 237.25 374.90 237.08 C 373.04 236.56 371.49 238.35 371.78 240.12 M 393.13 242.07 C 393.20 243.53 392.71 246.19 394.97 246.01 C 397.00 246.28 397.66 244.13 398.63 242.84 C 397.16 241.16 394.94 240.45 393.13 242.07 M 168.97 251.03 C 168.27 252.58 169.34 254.46 171.05 254.57 C 176.39 255.46 181.75 256.70 186.41 259.59 C 188.05 260.93 190.50 260.23 191.20 258.24 C 192.46 255.13 194.61 251.84 193.41 248.39 C 191.74 248.26 190.03 247.93 188.37 248.31 C 187.99 250.17 187.97 252.07 187.67 253.94 C 182.03 253.09 176.78 250.52 171.85 247.73 C 170.85 248.79 169.75 249.79 168.97 251.03 M 242.21 250.18 C 239.71 251.28 239.18 254.90 241.54 256.47 C 244.28 259.22 249.51 256.74 249.52 253.02 C 248.59 250.13 244.84 248.52 242.21 250.18 M 482.54 255.69 C 479.07 257.20 480.50 261.74 481.47 264.47 C 483.70 268.63 489.09 266.68 492.68 265.78 C 496.21 264.39 500.71 264.55 503.45 261.65 C 504.83 257.46 502.33 252.37 498.29 250.59 C 493.13 252.57 487.37 252.81 482.54 255.69 M 312.24 251.34 C 311.14 251.97 311.13 253.53 311.38 254.61 C 312.40 257.70 318.40 256.61 317.78 253.17 C 317.69 250.55 313.97 250.00 312.24 251.34 M 421.25 261.41 C 422.74 261.78 424.26 262.09 425.79 262.28 C 425.85 260.71 425.88 259.14 425.87 257.57 C 423.23 257.07 421.50 258.89 421.25 261.41 M 167.11 264.84 C 172.26 265.50 177.55 265.81 182.54 267.46 C 183.55 268.57 183.26 270.30 181.96 271.03 C 176.30 270.71 171.25 267.87 165.89 266.32 C 164.67 268.18 162.21 273.34 166.10 273.44 C 172.22 273.10 177.94 275.67 183.97 276.09 C 187.42 274.30 188.87 269.72 188.20 266.07 C 186.30 262.52 181.56 262.51 178.11 261.51 C 174.95 260.94 172.21 259.15 169.16 258.26 C 166.11 258.48 165.26 262.92 167.11 264.84 M 273.50 260.13 C 272.22 261.74 273.20 264.68 275.47 264.33 C 277.63 264.33 277.83 262.07 278.09 260.45 C 276.59 260.23 275.00 259.46 273.50 260.13 M 364.33 260.55 C 362.70 261.66 363.78 265.21 366.07 264.58 C 368.59 265.02 369.70 261.75 367.90 260.22 C 366.63 259.92 365.44 260.03 364.33 260.55 M 485.76 270.68 C 483.44 273.69 484.58 278.66 487.06 281.33 C 491.08 282.05 495.21 281.24 499.07 280.08 C 498.88 277.99 499.35 275.59 497.93 273.85 C 494.77 271.62 494.08 277.56 490.96 276.95 C 489.24 277.27 488.69 275.56 489.30 274.26 C 492.94 272.15 497.35 272.73 501.23 271.34 C 501.69 271.71 502.61 272.43 503.07 272.79 C 502.73 274.94 501.05 278.21 503.87 279.37 C 506.45 279.45 508.57 276.67 507.89 274.19 C 507.29 271.94 507.15 269.29 505.38 267.60 C 503.18 265.68 500.23 267.16 497.76 267.50 C 493.77 268.54 489.36 268.53 485.76 270.68 M 437.56 269.74 C 435.25 271.06 433.12 274.26 435.41 276.62 C 437.37 279.74 442.66 279.61 443.94 275.94 C 445.78 272.18 441.30 267.30 437.56 269.74 M 413.27 276.25 C 411.17 277.13 411.15 280.13 413.09 281.21 C 414.88 281.73 418.09 281.45 417.97 278.97 C 418.43 276.41 415.22 275.01 413.27 276.25 M 162.10 280.93 C 161.80 283.48 161.39 286.24 162.42 288.68 C 166.68 290.53 171.41 290.44 175.95 290.91 C 178.11 291.04 180.70 292.20 182.53 290.45 C 184.95 288.20 185.66 284.35 184.58 281.29 C 183.78 280.04 181.78 278.18 180.35 279.30 C 176.99 280.83 182.25 285.07 178.89 286.74 C 175.15 286.33 171.29 286.19 167.64 285.32 C 164.77 282.65 170.62 279.25 167.26 276.38 C 165.15 277.28 162.40 278.27 162.10 280.93 M 327.45 277.37 C 325.77 277.92 325.17 280.31 326.40 281.60 C 327.54 282.49 329.54 282.84 330.16 281.14 C 331.68 279.55 329.45 276.36 327.45 277.37 M 489.00 284.70 C 484.71 284.17 486.03 292.30 489.86 290.55 C 496.21 288.71 502.84 288.43 509.41 288.47 C 509.47 286.31 510.08 282.64 507.04 282.37 C 501.18 284.13 495.13 285.17 489.00 284.70 M 232.48 286.68 C 230.29 288.06 228.09 291.25 230.37 293.57 C 232.15 296.60 236.73 296.72 238.53 293.63 C 241.51 290.04 236.27 284.48 232.48 286.68 M 487.94 292.78 C 487.16 296.95 487.55 301.23 487.71 305.45 C 489.68 305.19 492.45 306.14 493.77 304.15 C 493.46 302.15 491.29 300.07 493.00 298.21 C 496.04 297.34 496.56 300.65 497.49 302.63 C 498.64 302.90 499.82 303.10 501.02 303.23 C 501.21 300.78 501.42 298.12 504.05 297.04 C 506.50 298.81 505.46 301.40 504.34 303.60 C 505.74 305.61 509.51 306.26 510.47 303.55 C 510.76 299.89 510.80 296.12 510.15 292.49 C 504.45 291.87 498.79 294.50 493.09 293.24 C 491.38 293.05 489.64 292.11 487.94 292.78 M 162.31 297.54 C 159.43 298.28 158.94 303.09 162.05 303.82 C 168.83 305.25 175.58 306.83 182.22 308.83 C 182.85 306.73 183.01 304.53 182.97 302.35 C 180.88 302.11 176.80 303.67 177.86 300.05 C 179.53 299.59 181.39 299.72 182.96 298.95 C 185.01 297.00 183.12 292.65 180.10 293.66 C 174.27 295.42 168.15 295.89 162.31 297.54 M 400.49 296.63 C 397.76 298.48 398.55 303.28 401.55 304.49 C 404.38 306.04 408.01 303.11 407.76 300.11 C 407.16 296.95 403.34 295.07 400.49 296.63 M 258.57 298.73 C 255.80 299.15 256.02 304.00 259.02 303.81 C 262.39 304.34 261.53 298.31 258.57 298.73 M 244.70 299.63 C 243.72 300.95 244.14 303.50 245.98 303.82 C 248.32 304.80 250.31 302.13 249.39 299.98 C 248.10 299.02 245.86 297.96 244.70 299.63 M 297.32 303.40 C 295.52 304.09 294.14 305.92 294.37 307.91 C 295.50 309.58 297.11 310.93 298.99 311.70 C 301.43 311.45 303.59 309.32 304.11 306.94 C 303.63 303.96 300.02 302.16 297.32 303.40 M 440.51 306.41 C 439.41 307.96 439.33 310.69 441.09 311.81 C 442.95 312.32 445.79 312.21 446.42 309.95 C 447.56 306.68 442.76 303.79 440.51 306.41 M 161.25 308.35 C 159.39 311.08 160.80 314.87 160.81 318.01 C 160.65 319.67 162.00 322.11 163.94 321.27 C 167.81 319.84 171.98 319.83 176.03 319.36 C 178.60 318.88 181.23 321.06 183.64 319.71 C 184.19 317.66 184.42 314.97 182.69 313.42 C 180.38 313.08 178.20 314.36 175.91 314.49 C 174.41 312.98 174.66 309.64 171.94 309.66 C 168.88 310.27 170.73 315.40 167.06 315.48 C 164.40 314.04 166.37 311.31 166.70 309.17 C 165.23 307.86 162.91 306.55 161.25 308.35 M 487.61 311.11 C 487.43 313.85 486.68 317.07 488.27 319.52 C 491.34 320.21 494.68 321.15 497.81 320.34 C 501.06 319.36 500.75 315.55 502.33 313.20 C 503.52 313.39 504.66 313.83 505.80 314.25 C 505.00 316.18 503.57 317.91 503.30 320.04 C 505.39 322.89 509.46 320.89 510.00 317.86 C 510.55 315.18 511.39 310.96 508.24 309.61 C 505.44 308.24 502.03 308.16 499.14 309.28 C 495.82 310.49 497.04 315.31 493.79 316.87 C 490.68 314.69 493.50 311.70 493.55 308.89 C 491.43 307.45 487.93 308.32 487.61 311.11 M 354.47 314.57 C 351.35 314.75 351.90 320.10 354.98 319.72 C 358.78 320.10 358.18 313.54 354.47 314.57 M 234.46 320.39 C 232.79 321.12 231.46 322.49 230.61 324.08 C 230.25 328.40 236.66 330.77 239.25 327.26 C 242.36 324.39 237.64 319.63 234.46 320.39 M 380.33 320.19 C 378.64 321.35 376.69 323.71 378.18 325.76 C 380.39 329.35 386.66 328.28 387.41 324.07 C 386.88 321.11 383.18 317.85 380.33 320.19 M 316.20 321.08 C 313.04 322.18 311.37 326.42 313.81 329.05 C 316.27 332.51 321.82 330.70 322.95 326.99 C 324.17 323.31 319.58 319.81 316.20 321.08 M 346.36 323.45 C 342.57 325.21 346.70 329.94 349.59 327.51 C 351.69 325.18 349.02 322.22 346.36 323.45 M 348.89 332.09 C 348.33 335.36 350.12 339.47 346.99 341.91 C 344.82 344.87 339.91 346.59 340.47 350.85 C 344.92 347.58 349.10 343.85 352.77 339.73 C 354.44 335.50 354.03 330.55 353.01 326.17 C 351.70 328.18 350.10 330.00 348.89 332.09 M 435.63 332.32 C 436.58 333.89 438.42 333.20 439.91 333.20 C 439.60 331.66 440.55 329.18 438.56 328.54 C 436.57 327.45 434.25 330.55 435.63 332.32 M 417.13 339.16 C 414.48 342.17 410.27 342.19 406.78 343.58 C 408.62 344.25 410.67 345.47 412.66 344.54 C 415.70 343.03 417.90 340.21 421.10 338.93 C 423.58 337.88 425.89 336.47 427.90 334.66 C 427.83 334.49 427.69 334.16 427.62 333.99 C 423.17 333.05 419.84 336.16 417.13 339.16 M 174.57 336.68 C 172.60 338.02 170.35 340.32 171.36 342.94 C 172.57 347.32 180.56 347.71 181.46 342.98 C 182.50 339.33 178.23 334.44 174.57 336.68 M 426.30 339.85 C 425.85 342.18 428.96 341.88 430.33 342.72 C 431.06 341.43 432.44 339.42 430.88 338.16 C 429.69 336.17 426.17 337.68 426.30 339.85 M 493.45 337.64 C 490.93 338.95 490.02 342.84 492.17 344.88 C 494.29 346.84 498.01 347.00 500.32 345.28 C 501.83 343.39 501.70 340.44 500.47 338.44 C 498.71 336.61 495.61 336.59 493.45 337.64 M 420.28 346.42 C 418.26 346.76 418.11 349.36 419.39 350.60 C 420.92 352.67 424.86 350.72 423.76 348.10 C 423.84 346.18 421.67 346.07 420.28 346.42 M 255.57 361.81 C 255.85 362.43 256.42 363.65 256.70 364.27 C 260.00 363.96 264.66 365.72 266.64 362.14 C 265.47 360.47 264.33 358.31 262.06 358.07 C 259.14 357.30 257.11 359.79 255.57 361.81 M 347.49 364.33 C 350.49 364.69 353.51 364.63 356.51 364.22 C 356.77 362.34 356.82 360.15 354.87 359.14 C 351.55 356.10 346.04 360.27 347.49 364.33 Z" />
<path fill="#fefefe" opacity="1.00" d=" M 82.27 117.99 C 84.08 115.81 85.26 118.66 84.22 120.18 C 81.21 127.01 80.46 134.52 80.26 141.91 C 80.25 145.18 79.57 148.73 76.96 150.96 C 71.25 155.87 65.73 161.02 59.76 165.60 C 57.95 166.58 57.56 164.53 57.69 163.16 C 58.75 145.49 68.22 128.62 82.27 117.99 Z" />
<path fill="#fefefe" opacity="1.00" d=" M 578.10 143.63 C 579.48 143.25 580.98 143.01 582.29 143.79 C 592.90 148.40 601.47 156.48 609.59 164.51 C 613.80 168.51 614.12 174.79 613.84 180.22 C 613.77 181.99 612.68 184.99 610.42 183.43 C 593.97 176.29 584.07 159.83 578.10 143.63 Z" />
<path fill="#fefefe" opacity="1.00" d=" M 69.61 166.65 C 75.19 160.52 82.24 156.11 89.53 152.31 C 90.42 153.69 91.03 155.31 90.11 156.85 C 86.22 167.71 80.38 178.02 72.20 186.23 C 68.28 190.04 63.60 193.08 58.44 194.93 C 56.11 190.77 56.51 185.60 57.53 181.11 C 59.60 174.96 65.46 171.32 69.61 166.65 Z" />
<path fill="#fefefe" opacity="1.00" d=" M 618.75 159.48 C 618.62 158.18 619.67 157.32 620.51 156.52 C 630.91 170.68 636.94 188.83 634.20 206.44 C 632.62 206.99 631.54 205.40 630.37 204.68 C 626.62 201.75 623.44 198.21 620.36 194.61 C 619.02 193.07 618.14 191.12 618.02 189.07 C 617.51 179.19 618.82 169.34 618.75 159.48 Z" />
<path fill="#fefefe" opacity="1.00" d=" M 48.42 169.08 L 48.98 168.20 C 49.42 168.32 50.31 168.58 50.75 168.70 C 51.59 178.80 53.00 188.88 53.15 199.03 C 53.63 203.94 49.67 207.46 46.74 210.82 C 44.16 213.31 42.02 216.39 38.91 218.24 C 36.25 217.98 37.08 214.80 36.74 212.96 C 35.14 197.48 40.71 182.25 48.42 169.08 Z" />
<path fill="#fefefe" opacity="1.00" d=" M 606.63 204.16 C 606.05 198.72 604.81 193.00 606.40 187.64 C 612.52 195.51 617.22 204.52 624.41 211.54 C 627.48 214.73 631.31 218.16 631.16 222.99 C 630.65 227.78 628.29 232.14 625.87 236.21 C 623.82 237.15 622.35 235.19 620.94 234.05 C 612.64 226.31 608.68 215.07 606.63 204.16 Z" />
<path fill="#fefefe" opacity="1.00" d=" M 53.07 215.99 C 57.59 210.44 59.68 203.10 65.21 198.37 C 66.79 214.54 63.36 232.10 52.73 244.79 C 51.37 246.26 48.94 249.26 46.95 247.02 C 43.61 242.21 39.55 236.12 42.15 230.08 C 44.83 224.72 49.89 221.04 53.07 215.99 Z" />
<path fill="#fefefe" opacity="1.00" d=" M 202.51 204.54 C 200.95 203.35 202.47 201.32 204.01 201.22 C 207.75 203.02 210.99 205.72 214.23 208.28 C 213.52 209.33 212.80 210.37 212.06 211.39 C 208.61 209.52 205.40 207.19 202.51 204.54 Z" />
<path fill="#fefefe" opacity="1.00" d=" M 641.55 211.32 C 641.91 211.05 642.63 210.51 642.99 210.24 C 647.82 219.38 649.60 229.85 650.42 240.06 C 650.99 246.49 649.44 252.79 647.95 258.99 C 647.67 260.27 646.78 261.28 646.15 262.38 C 642.02 258.90 639.38 254.08 636.23 249.77 C 633.26 245.70 634.21 240.43 635.44 235.92 C 637.31 227.68 639.53 219.52 641.55 211.32 Z" />
<path fill="#fefefe" opacity="1.00" d=" M 27.87 224.79 C 28.41 223.69 29.07 222.67 29.86 221.72 C 33.23 230.31 34.99 239.42 37.74 248.21 C 38.54 251.30 40.00 254.60 38.74 257.77 C 36.63 263.58 32.79 268.49 29.48 273.64 C 28.39 274.07 27.19 273.59 26.56 272.63 C 20.52 257.28 22.67 240.06 27.87 224.79 Z" />
<path fill="#fefefe" opacity="1.00" d=" M 472.68 232.30 C 477.01 230.50 481.13 226.43 486.05 227.24 C 486.23 227.69 486.57 228.59 486.75 229.04 C 483.52 232.48 478.82 233.84 474.66 235.76 C 473.97 234.62 473.31 233.47 472.68 232.30 Z" />
<path fill="#fefefe" opacity="1.00" d=" M 623.45 241.18 C 626.86 245.96 628.92 251.49 631.17 256.86 C 634.05 263.71 639.75 268.98 642.31 275.98 C 643.36 280.22 640.89 284.23 638.74 287.68 C 637.27 289.70 635.70 292.32 632.95 292.57 C 630.27 290.73 629.00 287.55 627.40 284.84 C 621.20 273.27 621.01 259.70 622.17 246.94 C 622.33 244.97 622.87 243.06 623.45 241.18 Z" />
<path fill="#fefefe" opacity="1.00" d=" M 43.13 267.14 C 45.30 262.39 46.29 256.82 50.02 252.97 C 52.44 259.02 51.89 265.65 52.20 272.03 C 52.70 282.31 50.41 292.96 44.62 301.57 C 43.54 302.77 42.08 305.48 40.24 303.78 C 36.63 300.67 33.83 296.53 32.34 292.00 C 31.27 288.95 32.53 285.75 34.22 283.21 C 37.57 278.08 41.01 272.93 43.13 267.14 Z" />
<path fill="#fefefe" opacity="1.00" d=" M 485.83 258.93 C 489.80 257.36 494.00 256.33 498.20 255.59 C 498.68 256.76 498.86 258.02 499.12 259.27 C 494.82 260.76 490.58 262.82 485.97 262.99 C 485.49 261.70 484.98 260.18 485.83 258.93 Z" />
<path fill="#fefefe" opacity="1.00" d=" M 652.56 270.38 C 653.66 268.36 655.47 270.21 655.12 271.90 C 657.57 285.72 656.47 300.20 651.70 313.42 C 650.11 317.09 648.74 321.09 646.01 324.09 L 644.97 324.28 C 640.09 318.00 635.04 309.70 638.33 301.55 C 642.99 291.13 648.20 280.93 652.56 270.38 Z" />
<path fill="#fefefe" opacity="1.00" d=" M 19.73 282.38 C 20.69 280.29 21.76 282.70 22.18 283.71 C 27.05 294.07 32.59 304.10 37.52 314.42 C 40.04 320.46 37.01 326.85 34.17 332.18 C 33.12 333.71 32.21 336.01 30.10 336.19 C 26.45 331.29 24.06 325.56 22.18 319.78 C 18.71 307.72 17.06 294.74 19.73 282.38 Z" />
<path fill="#fefefe" opacity="1.00" d=" M 624.00 295.76 C 626.36 295.81 626.51 298.35 627.18 300.05 C 629.32 306.78 630.74 313.79 633.95 320.14 C 635.77 323.95 638.63 327.55 638.56 331.99 C 638.57 338.09 633.87 342.73 629.57 346.45 C 628.48 347.57 626.84 347.03 626.23 345.73 C 623.30 340.97 621.24 335.60 620.45 330.06 C 619.50 318.53 620.15 306.73 624.00 295.76 Z" />
<path fill="#fefefe" opacity="1.00" d=" M 170.95 299.32 C 172.85 298.68 173.46 301.75 171.67 302.21 C 169.74 302.89 168.92 299.64 170.95 299.32 Z" />
<path fill="#fefefe" opacity="1.00" d=" M 49.38 307.97 C 49.81 307.77 50.67 307.39 51.09 307.20 C 53.85 313.13 54.64 319.74 56.06 326.07 C 57.39 335.89 56.44 346.24 52.24 355.29 C 51.28 356.80 49.35 359.92 47.44 357.85 C 43.33 354.08 38.33 349.93 37.81 343.99 C 38.45 339.36 41.03 335.29 42.59 330.94 C 45.91 323.62 47.21 315.65 49.38 307.97 Z" />
<path fill="#fefefe" opacity="1.00" d=" M 650.33 327.26 C 652.79 326.35 652.51 329.44 652.57 331.01 C 652.00 338.91 651.79 346.95 649.43 354.58 C 647.33 361.68 644.01 368.50 639.16 374.12 C 638.17 375.15 636.90 376.76 635.42 375.50 C 631.63 372.56 628.33 367.98 628.98 362.94 C 629.53 359.18 632.02 356.13 633.94 352.98 C 639.56 344.51 645.23 336.06 650.33 327.26 Z" />
<path fill="#fefefe" opacity="1.00" d=" M 24.70 349.04 C 24.75 345.60 22.85 341.33 25.52 338.49 C 31.29 347.02 36.72 355.80 42.97 364.00 C 45.35 367.35 48.05 370.73 48.92 374.85 C 49.73 379.50 46.63 383.53 43.72 386.79 C 42.57 388.30 40.68 387.46 39.64 386.32 C 29.85 376.50 25.59 362.60 24.70 349.04 Z" />
<path fill="#fefefe" opacity="1.00" d=" M 608.18 397.96 C 602.41 380.63 609.71 362.18 619.12 347.61 C 619.72 348.99 620.67 350.31 620.75 351.87 C 621.48 360.90 621.95 369.97 623.36 378.93 C 623.81 382.48 624.29 386.66 621.68 389.55 C 618.60 392.89 615.00 395.74 611.25 398.28 C 610.40 399.11 608.45 399.54 608.18 397.96 Z" />
<path fill="#fefefe" opacity="1.00" d=" M 57.50 358.49 C 60.30 360.87 61.83 364.29 63.63 367.41 C 69.08 377.64 73.68 389.14 72.25 400.95 C 71.82 403.90 71.98 407.21 70.08 409.70 C 66.52 408.83 63.67 406.34 60.82 404.16 C 58.75 402.28 56.32 400.53 55.09 397.97 C 53.95 391.65 56.35 385.40 56.10 379.06 C 55.77 372.18 56.59 365.30 57.50 358.49 Z" />
<path fill="#fefefe" opacity="1.00" d=" M 203.47 369.58 C 208.92 368.81 214.46 369.19 219.95 369.01 C 300.65 369.02 381.34 368.91 462.04 369.12 C 464.55 369.19 467.11 368.91 469.58 369.51 C 472.66 370.56 475.04 373.62 474.98 376.93 C 475.08 390.31 474.98 403.68 475.06 417.06 C 475.12 419.80 475.12 422.96 472.86 424.94 C 470.01 427.79 465.66 426.88 462.03 427.04 C 376.33 427.10 290.64 426.83 204.95 426.89 C 200.71 427.17 197.10 423.16 197.50 419.00 C 197.50 405.32 197.59 391.64 197.41 377.96 C 197.22 374.21 199.98 370.71 203.47 369.58 M 208.52 386.00 C 210.68 391.79 209.67 398.06 209.78 404.10 C 209.91 406.84 207.79 409.49 208.61 412.15 C 210.99 414.64 214.95 413.34 217.99 413.23 C 218.35 409.70 217.02 406.39 216.67 402.94 C 216.45 396.86 216.70 390.73 218.30 384.83 C 217.80 381.96 214.12 382.66 211.99 382.55 C 209.92 382.16 207.98 383.86 208.52 386.00 M 222.17 390.10 C 223.01 397.05 222.70 404.20 221.00 411.01 C 220.81 413.58 224.22 413.84 226.06 413.75 C 228.09 413.74 231.45 412.77 230.39 410.08 C 229.57 406.94 228.49 403.77 229.33 400.50 C 232.02 404.25 232.93 408.92 235.43 412.76 C 237.16 414.21 241.86 414.21 241.66 411.13 C 242.14 402.73 240.58 394.03 243.25 385.89 C 243.92 383.94 241.80 382.23 239.96 382.52 C 237.97 382.67 234.91 382.09 233.81 384.11 C 234.14 387.91 236.86 391.48 235.12 395.37 C 232.58 391.74 231.59 387.35 229.49 383.51 C 227.49 382.61 225.16 382.68 223.00 382.61 C 219.56 383.71 221.47 387.71 222.17 390.10 M 246.47 383.38 C 244.96 386.54 247.78 389.72 247.47 392.98 C 247.29 398.06 248.09 403.32 246.27 408.20 C 245.69 409.79 245.01 412.19 247.09 413.01 C 249.67 413.65 253.27 414.26 255.32 412.15 C 256.58 408.76 252.47 405.42 254.12 402.01 C 256.62 400.36 261.95 402.32 261.87 398.00 C 262.26 393.36 256.48 395.87 254.06 394.06 C 253.31 392.08 253.28 389.15 255.95 388.77 C 258.74 389.66 261.41 392.50 264.49 390.46 C 264.95 387.91 266.22 382.25 262.02 382.57 C 256.89 382.94 251.31 381.65 246.47 383.38 M 271.05 382.99 C 268.49 383.71 267.23 386.45 267.39 388.95 C 267.41 395.55 267.20 402.16 267.44 408.76 C 267.64 412.01 271.00 413.91 274.02 413.55 C 278.03 413.41 283.97 414.50 285.83 409.81 C 286.81 404.95 286.14 399.90 286.43 394.97 C 286.20 391.17 287.31 385.97 283.52 383.58 C 279.59 382.15 275.13 382.39 271.05 382.99 M 289.22 387.04 C 291.65 395.52 289.86 404.41 288.92 412.94 C 291.54 413.65 294.32 413.75 297.01 413.43 C 301.31 410.69 293.88 404.98 297.81 402.07 C 300.06 404.58 300.87 407.92 302.20 410.93 C 303.13 415.54 312.16 414.16 309.78 409.02 C 307.73 406.68 305.91 404.15 305.28 401.03 C 306.67 399.24 308.93 397.66 308.83 395.15 C 308.83 392.38 308.97 389.60 308.67 386.86 C 308.30 384.18 305.43 382.84 302.98 382.78 C 298.99 382.68 294.98 382.42 291.00 382.77 C 288.96 382.97 288.52 385.45 289.22 387.04 M 312.28 384.98 C 313.53 389.86 314.70 394.85 314.27 399.94 C 314.22 404.40 312.23 408.61 312.52 413.09 C 315.54 413.41 318.83 414.17 321.70 412.75 C 323.26 408.45 318.65 403.71 321.75 399.66 C 323.24 401.29 323.28 405.34 326.02 405.29 C 327.66 403.42 328.51 400.99 330.24 399.18 C 330.64 401.93 330.35 404.72 329.55 407.38 C 329.22 409.08 328.22 411.01 329.45 412.59 C 331.06 413.65 333.09 413.57 334.95 413.54 C 336.41 413.56 338.97 413.12 338.47 411.07 C 336.99 404.46 335.67 397.57 337.28 390.84 C 337.57 388.32 339.04 385.69 338.01 383.21 C 335.60 382.44 332.61 381.93 330.36 383.35 C 328.53 385.96 327.54 389.08 325.58 391.63 C 323.52 389.40 322.59 386.48 321.03 383.94 C 319.56 382.30 317.05 382.30 315.05 382.65 C 314.01 382.92 311.69 383.43 312.28 384.98 M 347.65 384.98 C 345.89 392.85 344.53 400.85 341.65 408.41 C 340.94 410.09 340.22 413.14 342.94 413.28 C 345.55 413.42 349.10 414.36 351.00 412.04 C 350.92 410.07 350.17 408.15 350.29 406.17 C 351.26 404.94 352.94 405.29 354.17 405.85 C 354.61 408.23 354.15 410.74 354.94 413.06 C 357.71 413.83 360.62 413.52 363.44 413.30 C 363.40 411.57 363.80 409.74 363.08 408.10 C 359.79 400.48 359.27 392.03 356.77 384.16 C 356.37 382.37 354.33 382.72 352.98 382.54 C 351.01 382.33 348.03 382.50 347.65 384.98 M 361.17 384.20 C 360.91 386.24 360.68 388.57 361.70 390.44 C 363.43 392.35 366.03 390.07 368.15 390.08 C 369.23 395.26 369.02 400.79 368.01 405.99 C 367.73 408.20 365.82 410.61 367.35 412.70 C 370.05 414.29 373.41 413.37 376.38 413.29 C 376.95 409.41 374.93 405.82 375.10 401.97 C 375.23 398.16 374.66 394.26 375.49 390.52 C 377.76 390.55 381.63 392.58 382.10 389.04 C 382.26 386.90 383.35 382.61 379.96 382.68 C 374.97 382.53 369.98 382.63 365.00 382.63 C 363.64 382.75 361.55 382.41 361.17 384.20 M 385.86 382.92 C 384.57 385.57 386.48 388.23 386.64 390.92 C 387.08 396.78 387.72 402.93 385.53 408.55 C 384.92 409.99 384.32 412.23 386.19 413.03 C 388.89 413.91 392.01 413.74 394.70 412.80 C 395.25 409.52 393.47 406.39 393.50 403.10 C 393.47 397.92 392.85 392.58 394.42 387.55 C 394.95 385.90 395.24 383.38 393.12 382.75 C 390.71 382.40 388.24 382.46 385.86 382.92 M 397.32 387.91 C 396.98 394.61 397.58 401.32 397.31 408.02 C 397.10 409.86 398.03 411.86 399.93 412.38 C 402.25 412.62 404.57 411.79 406.89 412.18 C 408.39 413.07 409.58 414.39 411.06 415.34 C 413.50 415.83 416.02 415.35 418.47 415.10 C 418.71 412.73 416.60 412.57 414.87 412.14 C 417.17 406.70 415.70 400.65 416.12 394.93 C 415.86 391.29 417.14 386.78 414.01 384.05 C 411.24 381.77 407.32 382.73 404.03 382.59 C 400.85 382.30 397.49 384.58 397.32 387.91 M 419.30 383.39 C 417.67 384.48 418.84 386.61 419.17 388.07 C 420.72 392.54 419.90 397.35 420.15 401.98 C 420.41 405.06 419.30 408.77 421.71 411.26 C 424.09 414.48 428.52 413.32 431.96 413.51 C 435.66 413.93 439.04 410.77 438.94 407.07 C 439.16 399.68 438.47 392.14 440.73 384.97 C 441.37 382.79 438.45 382.42 436.94 382.42 C 434.61 382.10 430.51 382.71 431.28 385.97 C 433.37 392.16 432.59 398.80 432.66 405.22 C 432.60 408.09 427.78 408.00 426.72 405.94 C 426.29 401.63 426.67 397.28 426.59 392.95 C 426.38 389.83 428.10 387.03 428.27 383.97 C 426.02 381.89 421.93 382.12 419.30 383.39 M 443.85 382.95 C 443.79 383.45 443.67 384.45 443.61 384.95 C 445.10 390.84 445.42 396.98 445.02 403.03 C 444.92 406.11 443.25 408.90 443.12 411.95 C 444.24 414.09 447.01 413.38 448.97 413.55 C 453.09 413.38 457.28 413.86 461.38 413.27 C 463.49 411.64 462.77 408.14 462.08 405.92 C 459.06 403.53 455.95 406.80 453.00 407.56 C 451.13 406.25 450.32 403.09 452.56 401.72 C 454.54 400.89 456.82 401.24 458.90 400.70 C 459.49 398.96 459.62 397.01 458.88 395.30 C 456.95 394.98 454.99 395.07 453.06 394.81 C 450.39 393.68 450.94 388.63 454.08 388.53 C 456.03 389.32 457.65 391.54 459.97 390.98 C 463.69 390.65 463.10 385.43 461.93 383.05 C 455.99 382.23 449.82 382.46 443.85 382.95 Z" />
<path fill="#fefefe" opacity="1.00" d=" M 133.64 379.98 C 132.55 378.01 135.93 378.29 136.99 378.16 C 153.99 378.25 171.00 378.02 188.00 378.21 C 190.12 378.04 190.36 380.50 190.31 382.06 C 190.40 395.66 190.45 409.28 190.53 422.88 C 191.69 427.97 196.37 431.78 201.08 433.53 C 207.60 434.63 214.32 433.23 220.87 434.26 C 221.42 437.01 222.06 440.64 219.66 442.72 C 218.15 444.21 215.89 444.00 213.94 444.05 C 193.29 443.83 172.63 444.17 151.98 444.07 C 145.55 443.96 139.11 444.65 132.69 444.12 C 133.48 440.43 135.26 437.09 136.81 433.68 C 140.10 426.74 143.17 419.69 146.62 412.83 C 147.57 411.09 148.18 408.98 147.12 407.15 C 142.91 397.96 137.85 389.16 133.64 379.98 Z" />
<path fill="#fefefe" opacity="1.00" d=" M 483.16 378.24 C 497.44 377.87 511.73 378.24 526.01 378.17 C 530.71 378.24 535.43 377.91 540.12 378.48 C 536.26 388.00 531.75 397.24 527.33 406.52 C 526.37 408.96 524.89 411.35 524.88 414.04 C 525.83 417.43 528.46 420.03 529.79 423.27 C 532.79 429.96 537.17 436.03 539.59 442.97 C 539.34 445.16 536.45 444.01 535.00 444.37 C 508.64 443.80 482.27 444.14 455.90 444.00 C 451.36 443.53 450.47 437.57 451.55 433.98 C 458.42 433.78 465.32 434.24 472.17 433.70 C 475.42 432.47 478.14 429.93 480.24 427.22 C 483.96 421.09 481.25 413.70 481.92 407.01 C 482.69 397.44 482.98 387.84 483.16 378.24 Z" />
<path fill="#fefefe" opacity="1.00" d=" M 638.47 383.43 C 640.02 383.09 640.80 384.41 640.32 385.84 C 639.44 394.66 636.43 403.17 631.99 410.81 C 626.72 418.76 619.50 425.43 611.13 430.01 C 609.94 430.61 607.96 431.56 607.32 429.78 C 606.58 426.18 607.16 422.46 607.42 418.83 C 607.70 414.07 610.81 410.18 613.90 406.81 C 620.29 400.21 626.89 393.81 633.66 387.61 C 635.26 386.23 636.53 384.35 638.47 383.43 Z" />
<path fill="#fefefe" opacity="1.00" d=" M 274.25 389.25 C 276.04 388.39 280.05 388.09 279.91 390.94 C 280.05 395.97 280.17 401.04 279.82 406.06 C 278.69 408.23 273.40 408.12 273.71 405.03 C 273.88 399.81 273.00 394.31 274.25 389.25 Z" />
<path fill="#fefefe" opacity="1.00" d=" M 297.23 389.27 C 298.86 388.62 300.99 388.26 302.40 389.57 C 302.98 391.17 302.98 393.28 301.70 394.56 C 300.35 395.05 298.83 395.02 297.50 394.50 C 296.36 393.05 296.43 390.84 297.23 389.27 Z" />
<path fill="#fefefe" opacity="1.00" d=" M 404.10 389.14 C 405.83 388.76 408.76 387.94 409.65 390.06 C 409.97 395.07 409.92 400.12 409.72 405.13 C 409.56 407.82 405.81 407.92 404.04 406.81 C 402.99 403.68 403.74 400.27 403.55 397.02 C 403.73 394.41 403.09 391.62 404.10 389.14 Z" />
<path fill="#fefefe" opacity="1.00" d=" M 39.24 401.86 C 38.94 399.39 36.65 396.10 39.63 394.49 C 46.44 399.89 52.70 405.95 59.17 411.74 C 62.61 414.99 66.47 417.91 69.16 421.87 C 72.93 427.32 74.17 434.43 72.69 440.87 C 71.66 442.31 69.77 440.96 68.55 440.52 C 62.23 437.15 56.31 432.84 51.65 427.36 C 45.83 419.85 40.95 411.32 39.24 401.86 Z" />
<path fill="#fefefe" opacity="1.00" d=" M 352.68 394.51 C 353.22 395.59 353.78 396.66 354.11 397.83 C 353.45 398.58 352.74 399.29 351.98 399.95 C 350.77 398.02 350.94 396.10 352.68 394.51 Z" />
<path fill="#fefefe" opacity="1.00" d=" M 597.61 403.55 C 598.76 401.69 599.98 399.70 602.21 399.00 C 603.02 405.02 601.27 410.97 601.26 416.98 C 601.01 423.37 601.93 429.72 601.92 436.10 C 601.39 441.53 595.95 444.40 591.70 446.80 C 589.72 447.53 587.21 449.67 585.31 447.83 C 582.46 439.00 585.13 429.68 588.11 421.27 C 590.30 414.88 594.10 409.26 597.61 403.55 Z" />
<path fill="#fefefe" opacity="1.00" d=" M 76.68 410.02 C 78.32 410.23 79.84 410.89 80.67 412.40 C 89.64 424.30 97.80 438.49 96.39 453.95 C 96.25 455.80 95.76 459.35 93.05 458.52 C 88.39 456.86 83.75 454.36 80.56 450.48 C 77.27 446.32 79.05 440.83 78.91 436.02 C 79.27 427.27 76.93 418.73 76.68 410.02 Z" />
<path fill="#fefefe" opacity="1.00" d=" M 198.75 429.87 C 200.39 429.78 202.04 429.73 203.68 429.66 L 203.11 430.71 C 209.72 429.91 216.36 430.66 222.99 430.62 C 279.02 430.47 335.05 430.55 391.08 430.53 C 411.66 430.61 432.25 430.34 452.84 430.74 L 449.15 431.60 C 445.53 435.30 448.74 441.21 448.74 445.64 C 443.47 449.95 437.22 452.95 431.41 456.48 C 416.66 464.33 401.23 471.28 384.91 475.12 C 363.21 480.84 340.51 484.01 318.10 481.43 C 286.84 478.26 256.47 467.64 229.62 451.40 C 227.02 449.86 224.45 448.27 222.15 446.30 C 225.37 442.07 225.26 436.72 224.50 431.72 C 217.15 430.73 209.60 432.21 202.32 430.59 C 201.13 430.36 199.94 430.13 198.75 429.87 M 382.79 441.67 C 379.60 443.37 380.86 447.56 380.06 450.41 C 378.36 448.27 378.49 445.50 377.67 443.03 C 375.45 443.55 373.18 443.82 370.96 444.29 C 369.45 445.25 369.80 447.92 371.08 448.99 C 374.61 452.18 377.14 456.24 379.32 460.42 C 380.80 462.76 379.04 465.45 379.50 467.96 C 382.22 470.69 386.26 468.15 389.16 467.06 C 388.94 466.57 388.52 465.58 388.30 465.09 C 384.49 458.93 386.87 451.38 388.74 444.97 C 389.70 441.76 385.06 440.30 382.79 441.67 M 260.37 442.50 C 255.87 444.23 256.59 451.78 261.10 452.99 C 264.85 454.27 268.79 450.68 269.01 447.01 C 268.44 443.21 263.85 440.62 260.37 442.50 M 285.31 442.23 C 284.58 449.51 283.53 457.14 279.51 463.44 C 278.48 464.68 279.43 466.86 281.02 466.99 C 283.17 467.22 285.64 468.54 287.70 467.56 C 289.53 464.87 286.69 460.23 289.47 458.10 C 291.01 461.55 291.31 465.43 292.94 468.85 C 294.25 470.42 297.80 471.14 298.81 468.88 C 301.11 462.60 300.70 455.57 303.73 449.51 C 304.14 448.18 305.63 446.28 304.09 445.15 C 301.93 443.44 298.15 442.87 296.17 445.15 C 295.81 447.93 297.09 450.91 295.39 453.43 C 294.04 450.20 294.17 446.51 292.50 443.43 C 290.81 441.54 287.51 441.03 285.31 442.23 M 406.30 442.41 C 401.51 444.10 402.19 451.97 406.97 453.12 C 410.33 454.16 413.85 451.40 414.26 448.05 C 415.04 443.94 409.90 440.43 406.30 442.41 M 312.87 447.60 C 309.83 454.81 307.36 462.26 303.56 469.12 C 304.73 472.55 309.48 472.00 312.33 471.45 C 312.54 469.67 312.45 467.88 312.72 466.12 C 314.35 465.51 316.01 465.88 317.63 466.33 C 317.22 468.23 316.36 470.10 316.53 472.09 C 318.18 473.07 320.17 473.14 322.05 473.14 C 323.32 473.12 325.69 472.95 325.31 471.05 C 323.73 464.74 322.26 458.38 321.63 451.89 C 321.55 449.60 320.55 446.82 318.05 446.30 C 316.31 446.06 313.65 445.48 312.87 447.60 M 352.00 449.95 C 351.37 456.28 351.96 462.70 353.21 468.93 C 353.44 470.42 354.58 471.75 356.10 472.05 C 360.30 472.94 364.80 472.40 368.76 470.77 C 371.16 469.75 370.76 466.85 370.84 464.74 C 366.56 463.31 363.83 467.74 359.72 467.82 C 357.81 463.14 358.03 457.92 358.17 452.98 C 359.89 448.29 366.09 455.60 368.44 450.98 C 368.88 447.65 365.13 445.07 362.01 445.85 C 358.56 446.19 352.97 445.49 352.00 449.95 M 329.53 449.01 C 329.24 453.31 330.64 457.59 330.17 461.93 C 330.20 465.63 328.53 469.06 328.34 472.72 C 330.86 474.42 334.31 473.64 337.08 472.95 C 337.81 469.73 335.14 466.42 336.43 463.04 C 338.86 465.68 340.13 469.06 341.87 472.14 C 343.20 474.47 346.20 473.40 348.30 473.24 C 348.85 468.17 348.24 463.09 348.04 458.02 C 347.81 454.61 348.94 451.33 349.04 447.95 C 346.50 446.47 343.40 447.46 340.65 447.55 C 340.86 451.02 342.72 454.33 341.69 457.85 C 339.48 454.66 338.37 450.84 336.10 447.70 C 334.02 446.68 330.35 446.14 329.53 449.01 Z" />
<path fill="#fefefe" opacity="1.00" d=" M 613.04 435.95 C 614.22 434.84 615.76 434.44 617.37 434.54 C 614.72 442.99 610.79 451.16 605.13 458.03 C 600.74 463.40 595.12 467.62 589.19 471.14 C 586.31 472.80 583.29 474.50 579.89 474.67 C 579.44 469.57 579.80 464.27 581.59 459.44 C 583.46 454.57 588.43 452.17 592.53 449.49 C 599.40 445.04 606.53 440.95 613.04 435.95 Z" />
<path fill="#fefefe" opacity="1.00" d=" M 578.44 441.24 C 578.90 441.18 579.81 441.07 580.27 441.01 C 579.06 448.53 575.22 455.37 573.75 462.85 C 572.17 468.88 573.21 476.49 567.68 480.74 C 563.34 483.83 557.45 486.00 552.19 484.98 C 551.09 473.18 558.20 462.79 565.15 453.96 C 568.82 448.96 573.81 445.26 578.44 441.24 Z" />
<path fill="#fefefe" opacity="1.00" d=" M 64.50 445.28 C 65.33 445.41 66.10 445.73 66.80 446.23 C 76.10 452.80 86.33 457.91 95.87 464.11 C 100.71 467.36 101.53 473.77 102.11 479.10 C 102.00 480.88 102.96 483.56 100.99 484.62 C 83.40 479.03 69.49 464.16 63.63 446.85 C 63.85 446.46 64.28 445.67 64.50 445.28 Z" />
<path fill="#fefefe" opacity="1.00" d=" M 141.16 449.13 C 141.84 446.94 144.33 447.67 146.00 447.48 C 161.00 447.58 175.99 447.52 190.99 447.67 C 192.70 447.53 194.09 448.60 195.35 449.60 C 217.47 468.03 243.19 482.47 271.04 490.13 C 281.52 493.02 292.02 496.14 302.90 497.09 C 335.58 500.78 369.43 500.04 400.89 489.61 C 412.64 486.07 423.93 481.19 435.02 475.98 C 450.08 468.22 464.07 458.53 477.03 447.64 C 488.86 447.80 500.70 447.45 512.52 447.98 C 508.93 450.56 504.93 452.62 501.94 455.96 C 497.53 460.57 492.31 464.60 489.19 470.27 C 486.24 476.34 486.15 483.32 483.72 489.57 C 483.01 491.49 481.06 492.68 479.05 492.63 C 469.70 492.86 460.34 492.70 450.99 493.02 C 446.58 493.21 442.53 495.29 439.00 497.80 C 432.40 502.49 426.45 508.18 421.80 514.83 C 419.55 517.99 418.50 522.28 414.97 524.35 C 408.62 523.92 403.36 519.21 397.14 518.07 C 388.73 517.58 380.29 517.55 371.89 518.14 C 366.23 518.42 360.97 521.10 356.69 524.68 C 351.51 528.58 347.38 534.44 340.98 536.36 C 335.37 534.62 331.31 529.85 326.75 526.35 C 321.53 521.99 314.88 519.26 308.05 519.21 C 300.33 519.17 292.59 519.28 284.92 520.18 C 278.37 520.99 273.35 526.07 266.98 527.33 C 266.57 527.16 265.77 526.80 265.36 526.62 C 261.12 522.70 258.65 517.31 254.89 512.97 C 248.00 505.06 238.99 497.75 228.08 497.16 C 219.38 496.96 210.65 497.00 202.01 498.09 C 199.81 498.53 197.49 497.45 196.51 495.43 C 193.15 489.21 192.61 481.90 189.38 475.65 C 184.89 468.62 178.52 463.03 171.97 457.98 C 164.02 452.50 153.87 453.92 145.01 451.20 C 143.59 450.78 142.29 450.06 141.16 449.13 Z" />
<path fill="#fefefe" opacity="1.00" d=" M 202.35 447.86 C 206.01 447.18 209.90 447.74 212.88 450.08 C 250.11 475.93 295.45 490.76 340.96 488.91 C 360.98 488.87 380.73 484.78 399.79 478.90 C 419.71 472.36 438.56 462.68 455.76 450.71 C 459.14 448.15 463.42 446.85 467.62 447.89 C 465.11 451.02 461.52 452.95 458.37 455.32 C 432.81 473.70 402.93 485.76 371.95 491.09 C 358.18 494.03 344.03 494.06 330.01 493.92 C 319.27 494.53 308.58 493.01 298.03 491.14 C 285.94 488.76 273.78 486.34 262.30 481.73 C 248.96 477.18 236.15 471.08 224.18 463.63 C 216.67 458.77 208.39 454.59 202.35 447.86 Z" />
<path fill="#fefefe" opacity="1.00" d=" M 100.89 451.07 L 101.86 450.44 C 112.82 458.59 122.78 468.94 128.21 481.65 C 129.40 485.50 131.57 489.86 129.85 493.86 C 128.04 494.98 125.80 493.86 123.86 493.70 C 118.73 492.71 112.88 490.48 110.76 485.27 C 108.59 477.98 107.96 470.22 104.78 463.24 C 103.03 459.57 101.63 455.76 100.46 451.87 L 100.89 451.07 Z" />
<path fill="#fefefe" opacity="1.00" d=" M 315.32 457.01 C 316.28 457.52 318.25 460.23 315.83 460.04 C 313.65 460.15 315.11 458.13 315.32 457.01 Z" />
<path fill="#fefefe" opacity="1.00" d=" M 553.58 493.35 C 564.22 489.85 574.74 485.90 584.92 481.22 C 587.22 481.79 585.25 483.68 584.72 484.72 C 574.64 497.72 561.71 509.13 546.12 514.93 C 544.01 515.84 541.72 516.19 539.45 516.34 C 539.94 507.12 544.35 496.78 553.58 493.35 Z" />
<path fill="#fefefe" opacity="1.00" d=" M 535.25 488.13 C 538.47 486.55 541.72 484.82 545.37 484.57 C 543.65 488.52 541.26 492.14 538.71 495.60 C 534.26 501.70 531.93 508.96 528.86 515.77 C 526.45 520.95 520.28 522.39 515.07 522.59 C 512.54 522.62 509.91 523.07 507.46 522.35 C 505.38 521.36 506.79 518.75 507.14 517.15 C 511.64 503.89 522.98 494.14 535.25 488.13 Z" />
<path fill="#fefefe" opacity="1.00" d=" M 95.72 491.70 C 97.42 491.60 99.20 491.45 100.78 492.25 C 110.33 496.03 120.05 499.43 129.89 502.36 C 138.58 505.42 142.72 514.67 144.29 523.10 C 144.17 524.60 143.41 525.11 142.01 524.65 C 123.33 519.57 106.97 507.32 95.72 491.70 Z" />
<path fill="#fefefe" opacity="1.00" d=" M 138.12 492.91 C 148.11 495.62 157.35 501.02 165.17 507.76 C 170.69 513.02 175.48 519.55 177.30 527.05 C 178.06 529.57 174.80 530.05 173.07 529.96 C 167.15 529.91 159.77 530.48 155.81 525.11 C 152.68 520.32 151.07 514.71 148.03 509.85 C 145.03 504.25 140.36 499.75 137.52 494.08 L 138.12 492.91 Z" />
<path fill="#fefefe" opacity="1.00" d=" M 457.51 536.50 C 468.17 527.90 481.73 524.15 495.01 521.99 C 495.17 522.41 495.48 523.25 495.64 523.67 C 488.92 529.57 481.34 534.57 475.62 541.53 C 472.06 545.48 468.58 550.42 462.94 551.32 C 457.37 551.87 451.40 551.05 446.60 548.03 C 449.13 543.28 453.46 539.88 457.51 536.50 Z" />
<path fill="#fefefe" opacity="1.00" d=" M 502.86 531.16 C 513.55 529.38 524.31 528.05 534.94 525.95 C 536.93 525.57 538.94 525.33 540.97 525.47 C 540.49 527.58 538.85 528.97 537.22 530.22 C 523.52 541.73 506.80 550.38 488.87 552.43 C 487.11 552.45 482.68 553.04 483.89 550.01 C 486.20 544.92 489.06 539.94 492.86 535.81 C 495.49 533.07 499.18 531.73 502.86 531.16 Z" />
<path fill="#fefefe" opacity="1.00" d=" M 188.81 528.90 C 203.58 529.74 218.44 534.65 230.03 544.03 C 232.95 546.64 236.12 549.24 237.97 552.76 L 237.74 553.71 C 232.49 556.01 226.62 557.31 220.88 556.83 C 215.25 555.75 212.06 550.48 208.20 546.78 C 202.53 540.55 195.20 536.26 188.77 530.94 C 188.78 530.43 188.80 529.41 188.81 528.90 Z" />
<path fill="#fefefe" opacity="1.00" d=" M 143.86 533.54 C 157.19 535.08 170.52 536.97 183.85 538.59 C 192.43 539.98 196.51 548.59 200.66 555.22 C 202.26 557.06 200.34 559.84 198.05 559.04 C 185.19 557.78 172.50 554.19 161.20 547.84 C 154.56 544.60 148.63 540.11 143.38 534.94 L 143.86 533.54 Z" />
<path fill="#fefefe" opacity="1.00" d=" M 407.96 556.81 C 410.78 556.88 414.58 554.68 416.55 557.62 C 408.68 566.32 400.73 575.68 389.85 580.66 C 385.85 582.54 381.48 583.50 377.08 583.75 C 367.31 584.18 357.61 585.57 347.82 585.49 C 347.24 585.19 346.10 584.57 345.53 584.26 C 356.61 575.33 369.11 568.00 382.65 563.47 C 390.88 560.54 399.44 558.65 407.96 556.81 Z" />
<path fill="#fefefe" opacity="1.00" d=" M 422.67 573.13 C 426.07 567.03 430.92 560.63 438.06 558.95 C 449.35 558.19 460.68 559.18 471.99 558.92 C 474.83 559.13 478.32 558.07 480.44 560.58 C 470.94 565.86 460.87 570.04 450.49 573.23 C 441.61 575.05 432.34 575.98 423.36 574.65 C 423.19 574.27 422.84 573.51 422.67 573.13 Z" />
<path fill="#fefefe" opacity="1.00" d=" M 265.25 560.91 C 285.54 561.55 305.89 566.36 323.86 575.96 C 328.73 578.60 333.76 581.13 338.00 584.76 C 336.16 585.78 334.05 585.50 332.05 585.53 C 322.39 585.37 312.72 585.37 303.06 585.26 C 290.43 584.45 280.03 576.10 271.01 567.95 C 268.96 565.73 265.86 564.09 265.25 560.91 Z" />
<path fill="#fefefe" opacity="1.00" d=" M 204.63 565.38 C 217.73 564.24 230.91 564.15 244.05 563.42 C 252.98 562.88 259.23 570.55 263.55 577.35 C 261.16 580.93 256.50 579.08 252.95 579.55 C 238.34 581.11 224.41 575.29 211.24 569.76 C 208.92 568.52 205.85 567.99 204.63 565.38 Z" />
<path fill="#fefefe" opacity="1.00" d=" M 329.63 596.70 C 333.42 593.24 337.86 590.63 341.74 587.27 C 347.33 590.05 351.68 594.66 356.97 597.90 C 359.61 599.59 362.81 599.73 365.80 600.37 C 363.43 603.20 359.26 602.35 356.01 602.31 C 350.64 599.62 347.51 593.96 342.89 590.29 C 341.74 589.17 340.56 591.02 339.69 591.64 C 336.82 594.51 334.58 597.96 331.58 600.71 C 328.18 603.38 323.51 602.51 319.53 602.24 C 319.68 601.77 319.98 600.81 320.13 600.33 C 323.52 599.83 327.06 599.17 329.63 596.70 Z" />
</g>
</svg>
