<?xml version="1.0" encoding="UTF-8"?>
<svg xmlns="http://www.w3.org/2000/svg" xmlns:xlink="http://www.w3.org/1999/xlink" width="450pt" viewBox="0 0 250 148">
<defs>
<g>
<g id="glyph-0-0">
<path d="M 1.515625 -0.96875 C 2.03125 -1.546875 2.453125 -1.921875 3.046875 -2.46875 C 3.765625 -3.078125 4.078125 -3.375 4.25 -3.5625 C 5.078125 -4.390625 5.5 -5.078125 5.5 -5.171875 C 5.5 -5.265625 5.40625 -5.265625 5.375 -5.265625 C 5.296875 -5.265625 5.265625 -5.21875 5.21875 -5.140625 C 4.90625 -4.625 4.625 -4.375 4.3125 -4.375 C 4.0625 -4.375 3.9375 -4.484375 3.703125 -4.765625 C 3.453125 -5.0625 3.25 -5.265625 2.90625 -5.265625 C 2.03125 -5.265625 1.5 -4.1875 1.5 -3.9375 C 1.5 -3.890625 1.515625 -3.828125 1.625 -3.828125 C 1.71875 -3.828125 1.734375 -3.875 1.765625 -3.953125 C 1.96875 -4.4375 2.546875 -4.515625 2.765625 -4.515625 C 3.03125 -4.515625 3.265625 -4.4375 3.515625 -4.328125 C 3.96875 -4.140625 4.15625 -4.140625 4.28125 -4.140625 C 4.359375 -4.140625 4.40625 -4.140625 4.46875 -4.140625 C 4.078125 -3.6875 3.4375 -3.109375 2.890625 -2.625 L 1.6875 -1.5 C 0.953125 -0.765625 0.515625 -0.0625 0.515625 0.03125 C 0.515625 0.09375 0.578125 0.125 0.640625 0.125 C 0.71875 0.125 0.734375 0.109375 0.8125 -0.03125 C 1 -0.328125 1.390625 -0.78125 1.828125 -0.78125 C 2.078125 -0.78125 2.203125 -0.6875 2.4375 -0.390625 C 2.671875 -0.125 2.875 0.125 3.25 0.125 C 4.421875 0.125 5.09375 -1.40625 5.09375 -1.671875 C 5.09375 -1.71875 5.078125 -1.796875 4.953125 -1.796875 C 4.859375 -1.796875 4.859375 -1.75 4.8125 -1.625 C 4.546875 -0.921875 3.84375 -0.640625 3.375 -0.640625 C 3.125 -0.640625 2.890625 -0.71875 2.640625 -0.828125 C 2.15625 -1.015625 2.03125 -1.015625 1.875 -1.015625 C 1.75 -1.015625 1.625 -1.015625 1.515625 -0.96875 Z M 1.515625 -0.96875 "/>
</g>
<g id="glyph-0-1">
<path d="M 5.671875 -4.875 C 5.28125 -4.8125 5.140625 -4.515625 5.140625 -4.296875 C 5.140625 -4 5.359375 -3.90625 5.53125 -3.90625 C 5.890625 -3.90625 6.140625 -4.21875 6.140625 -4.546875 C 6.140625 -5.046875 5.5625 -5.265625 5.0625 -5.265625 C 4.34375 -5.265625 3.9375 -4.546875 3.828125 -4.328125 C 3.546875 -5.21875 2.8125 -5.265625 2.59375 -5.265625 C 1.375 -5.265625 0.734375 -3.703125 0.734375 -3.4375 C 0.734375 -3.390625 0.78125 -3.328125 0.859375 -3.328125 C 0.953125 -3.328125 0.984375 -3.40625 1 -3.453125 C 1.40625 -4.78125 2.21875 -5.03125 2.5625 -5.03125 C 3.09375 -5.03125 3.203125 -4.53125 3.203125 -4.25 C 3.203125 -3.984375 3.125 -3.703125 2.984375 -3.125 L 2.578125 -1.5 C 2.40625 -0.78125 2.0625 -0.125 1.421875 -0.125 C 1.359375 -0.125 1.0625 -0.125 0.8125 -0.28125 C 1.25 -0.359375 1.34375 -0.71875 1.34375 -0.859375 C 1.34375 -1.09375 1.15625 -1.25 0.9375 -1.25 C 0.640625 -1.25 0.328125 -0.984375 0.328125 -0.609375 C 0.328125 -0.109375 0.890625 0.125 1.40625 0.125 C 1.984375 0.125 2.390625 -0.328125 2.640625 -0.828125 C 2.828125 -0.125 3.4375 0.125 3.875 0.125 C 5.09375 0.125 5.734375 -1.453125 5.734375 -1.703125 C 5.734375 -1.765625 5.6875 -1.8125 5.625 -1.8125 C 5.515625 -1.8125 5.5 -1.75 5.46875 -1.65625 C 5.140625 -0.609375 4.453125 -0.125 3.90625 -0.125 C 3.484375 -0.125 3.265625 -0.4375 3.265625 -0.921875 C 3.265625 -1.1875 3.3125 -1.375 3.5 -2.15625 L 3.921875 -3.796875 C 4.09375 -4.5 4.5 -5.03125 5.0625 -5.03125 C 5.078125 -5.03125 5.421875 -5.03125 5.671875 -4.875 Z M 5.671875 -4.875 "/>
</g>
<g id="glyph-0-2">
<path d="M 3.140625 1.34375 C 2.828125 1.796875 2.359375 2.203125 1.765625 2.203125 C 1.625 2.203125 1.046875 2.171875 0.875 1.625 C 0.90625 1.640625 0.96875 1.640625 0.984375 1.640625 C 1.34375 1.640625 1.59375 1.328125 1.59375 1.046875 C 1.59375 0.78125 1.359375 0.6875 1.1875 0.6875 C 0.984375 0.6875 0.578125 0.828125 0.578125 1.40625 C 0.578125 2.015625 1.09375 2.4375 1.765625 2.4375 C 2.96875 2.4375 4.171875 1.34375 4.5 0.015625 L 5.671875 -4.65625 C 5.6875 -4.703125 5.71875 -4.78125 5.71875 -4.859375 C 5.71875 -5.03125 5.5625 -5.15625 5.390625 -5.15625 C 5.28125 -5.15625 5.03125 -5.109375 4.9375 -4.75 L 4.046875 -1.234375 C 4 -1.015625 4 -0.984375 3.890625 -0.859375 C 3.65625 -0.53125 3.265625 -0.125 2.6875 -0.125 C 2.015625 -0.125 1.953125 -0.78125 1.953125 -1.09375 C 1.953125 -1.78125 2.28125 -2.703125 2.609375 -3.5625 C 2.734375 -3.90625 2.8125 -4.078125 2.8125 -4.3125 C 2.8125 -4.8125 2.453125 -5.265625 1.859375 -5.265625 C 0.765625 -5.265625 0.328125 -3.53125 0.328125 -3.4375 C 0.328125 -3.390625 0.375 -3.328125 0.453125 -3.328125 C 0.5625 -3.328125 0.578125 -3.375 0.625 -3.546875 C 0.90625 -4.546875 1.359375 -5.03125 1.828125 -5.03125 C 1.9375 -5.03125 2.140625 -5.03125 2.140625 -4.640625 C 2.140625 -4.328125 2.015625 -3.984375 1.828125 -3.53125 C 1.25 -1.953125 1.25 -1.5625 1.25 -1.28125 C 1.25 -0.140625 2.0625 0.125 2.65625 0.125 C 3 0.125 3.4375 0.015625 3.84375 -0.4375 L 3.859375 -0.421875 C 3.6875 0.28125 3.5625 0.75 3.140625 1.34375 Z M 3.140625 1.34375 "/>
</g>
<g id="glyph-0-3">
<path d="M 6.015625 -8 C 6.03125 -8.046875 6.046875 -8.109375 6.046875 -8.171875 C 6.046875 -8.296875 5.921875 -8.296875 5.90625 -8.296875 C 5.890625 -8.296875 5.3125 -8.25 5.25 -8.234375 C 5.046875 -8.21875 4.859375 -8.203125 4.65625 -8.1875 C 4.34375 -8.15625 4.265625 -8.15625 4.265625 -7.9375 C 4.265625 -7.8125 4.359375 -7.8125 4.53125 -7.8125 C 5.109375 -7.8125 5.125 -7.703125 5.125 -7.59375 C 5.125 -7.515625 5.109375 -7.421875 5.09375 -7.390625 L 4.359375 -4.484375 C 4.234375 -4.796875 3.90625 -5.265625 3.28125 -5.265625 C 1.9375 -5.265625 0.484375 -3.53125 0.484375 -1.75 C 0.484375 -0.578125 1.171875 0.125 1.984375 0.125 C 2.640625 0.125 3.203125 -0.390625 3.53125 -0.78125 C 3.65625 -0.078125 4.21875 0.125 4.578125 0.125 C 4.9375 0.125 5.21875 -0.09375 5.4375 -0.53125 C 5.625 -0.9375 5.796875 -1.65625 5.796875 -1.703125 C 5.796875 -1.765625 5.75 -1.8125 5.671875 -1.8125 C 5.5625 -1.8125 5.5625 -1.75 5.515625 -1.578125 C 5.328125 -0.875 5.109375 -0.125 4.609375 -0.125 C 4.265625 -0.125 4.25 -0.4375 4.25 -0.671875 C 4.25 -0.71875 4.25 -0.96875 4.328125 -1.296875 Z M 3.59375 -1.421875 C 3.53125 -1.21875 3.53125 -1.1875 3.375 -0.96875 C 3.109375 -0.640625 2.578125 -0.125 2.015625 -0.125 C 1.53125 -0.125 1.25 -0.5625 1.25 -1.265625 C 1.25 -1.921875 1.625 -3.265625 1.859375 -3.765625 C 2.265625 -4.609375 2.828125 -5.03125 3.28125 -5.03125 C 4.078125 -5.03125 4.234375 -4.046875 4.234375 -3.953125 C 4.234375 -3.9375 4.203125 -3.796875 4.1875 -3.765625 Z M 3.59375 -1.421875 "/>
</g>
<g id="glyph-0-4">
<path d="M 4.109375 -0.734375 C 4.375 -0.015625 5.109375 0.125 5.5625 0.125 C 6.484375 0.125 7.015625 -0.671875 7.34375 -1.5 C 7.625 -2.1875 8.0625 -3.765625 8.0625 -4.46875 C 8.0625 -5.203125 7.703125 -5.265625 7.59375 -5.265625 C 7.296875 -5.265625 7.046875 -4.984375 7.046875 -4.75 C 7.046875 -4.609375 7.125 -4.515625 7.1875 -4.46875 C 7.296875 -4.359375 7.609375 -4.046875 7.609375 -3.421875 C 7.609375 -3.015625 7.265625 -1.890625 7.015625 -1.328125 C 6.6875 -0.59375 6.234375 -0.125 5.625 -0.125 C 4.953125 -0.125 4.734375 -0.625 4.734375 -1.171875 C 4.734375 -1.515625 4.84375 -1.9375 4.890625 -2.140625 L 5.390625 -4.140625 C 5.453125 -4.390625 5.5625 -4.8125 5.5625 -4.859375 C 5.5625 -5.03125 5.421875 -5.15625 5.234375 -5.15625 C 4.890625 -5.15625 4.8125 -4.859375 4.734375 -4.5625 C 4.609375 -4.09375 4.109375 -2.078125 4.0625 -1.8125 C 4.015625 -1.609375 4.015625 -1.484375 4.015625 -1.21875 C 4.015625 -0.9375 3.640625 -0.484375 3.625 -0.453125 C 3.484375 -0.328125 3.296875 -0.125 2.921875 -0.125 C 1.984375 -0.125 1.984375 -1.015625 1.984375 -1.21875 C 1.984375 -1.609375 2.0625 -2.125 2.609375 -3.546875 C 2.75 -3.921875 2.8125 -4.078125 2.8125 -4.3125 C 2.8125 -4.8125 2.453125 -5.265625 1.859375 -5.265625 C 0.765625 -5.265625 0.328125 -3.53125 0.328125 -3.4375 C 0.328125 -3.390625 0.375 -3.328125 0.453125 -3.328125 C 0.5625 -3.328125 0.578125 -3.375 0.625 -3.546875 C 0.921875 -4.609375 1.390625 -5.03125 1.828125 -5.03125 C 1.953125 -5.03125 2.140625 -5.015625 2.140625 -4.640625 C 2.140625 -4.578125 2.140625 -4.328125 1.9375 -3.796875 C 1.375 -2.3125 1.25 -1.8125 1.25 -1.359375 C 1.25 -0.109375 2.28125 0.125 2.890625 0.125 C 3.09375 0.125 3.640625 0.125 4.109375 -0.734375 Z M 4.109375 -0.734375 "/>
</g>
<g id="glyph-0-5">
<path d="M 3.359375 -8 C 3.375 -8.046875 3.390625 -8.109375 3.390625 -8.171875 C 3.390625 -8.296875 3.28125 -8.296875 3.25 -8.296875 C 3.234375 -8.296875 2.65625 -8.25 2.59375 -8.234375 C 2.390625 -8.21875 2.21875 -8.203125 2 -8.1875 C 1.703125 -8.15625 1.609375 -8.15625 1.609375 -7.9375 C 1.609375 -7.8125 1.703125 -7.8125 1.875 -7.8125 C 2.46875 -7.8125 2.46875 -7.703125 2.46875 -7.59375 C 2.46875 -7.515625 2.453125 -7.421875 2.4375 -7.390625 L 0.703125 -0.46875 C 0.65625 -0.28125 0.65625 -0.265625 0.65625 -0.1875 C 0.65625 0.078125 0.859375 0.125 0.984375 0.125 C 1.1875 0.125 1.34375 -0.03125 1.40625 -0.171875 L 1.9375 -2.328125 C 2 -2.59375 2.0625 -2.84375 2.125 -3.109375 C 2.265625 -3.609375 2.265625 -3.625 2.484375 -3.96875 C 2.71875 -4.3125 3.25 -5.03125 4.171875 -5.03125 C 4.65625 -5.03125 4.8125 -4.671875 4.8125 -4.203125 C 4.8125 -3.53125 4.34375 -2.21875 4.09375 -1.5 C 3.984375 -1.21875 3.921875 -1.0625 3.921875 -0.84375 C 3.921875 -0.3125 4.296875 0.125 4.859375 0.125 C 5.96875 0.125 6.390625 -1.640625 6.390625 -1.703125 C 6.390625 -1.765625 6.34375 -1.8125 6.28125 -1.8125 C 6.171875 -1.8125 6.15625 -1.78125 6.09375 -1.578125 C 5.828125 -0.625 5.375 -0.125 4.90625 -0.125 C 4.78125 -0.125 4.59375 -0.125 4.59375 -0.515625 C 4.59375 -0.828125 4.734375 -1.203125 4.78125 -1.34375 C 5 -1.90625 5.53125 -3.328125 5.53125 -4.015625 C 5.53125 -4.734375 5.109375 -5.265625 4.203125 -5.265625 C 3.53125 -5.265625 2.921875 -4.953125 2.4375 -4.328125 Z M 3.359375 -8 "/>
</g>
<g id="glyph-1-0">
<path d="M 5.5 -1.09375 C 5.5 -1.421875 5.5 -1.4375 5.25 -1.4375 C 4.03125 -1.4375 1.34375 -0.859375 -0.28125 2.0625 L -0.28125 2.25 C -0.28125 2.546875 -0.28125 2.5625 0 2.5625 C 0.234375 2.5625 0.234375 2.546875 0.296875 2.46875 C 1.28125 0.890625 2.921875 0.046875 5.359375 0 C 5.5 0 5.5 -0.078125 5.5 -0.328125 Z M 5.5 -1.09375 "/>
</g>
<g id="glyph-1-1">
<path d="M 5.671875 -3.6875 C 5.671875 -3.984375 5.65625 -4 5.375 -4 C 5.15625 -4 5.140625 -3.984375 5.078125 -3.890625 C 4.09375 -2.328125 2.453125 -1.484375 0.03125 -1.4375 C -0.125 -1.4375 -0.125 -1.34375 -0.125 -1.09375 L -0.125 -0.328125 C -0.125 -0.015625 -0.125 0 0.125 0 C 1.34375 0 4.046875 -0.578125 5.671875 -3.484375 Z M 5.671875 -3.6875 "/>
</g>
<g id="glyph-1-2">
<path d="M 5.5 -1.09375 C 5.5 -1.375 5.5 -1.4375 5.328125 -1.4375 C 4.609375 -1.453125 3.421875 -1.546875 2.34375 -2.0625 C 1.046875 -2.71875 0.5625 -3.46875 0.265625 -3.9375 C 0.234375 -4 0.15625 -4 0 -4 C -0.28125 -4 -0.28125 -3.984375 -0.28125 -3.6875 L -0.28125 -3.484375 C 1.34375 -0.5625 4.03125 0 5.25 0 C 5.5 0 5.5 -0.015625 5.5 -0.328125 Z M 5.5 -1.09375 "/>
</g>
<g id="glyph-1-3">
<path d="M 5.671875 2.0625 C 4.046875 -0.875 1.34375 -1.4375 0.125 -1.4375 C -0.125 -1.4375 -0.125 -1.421875 -0.125 -1.09375 L -0.125 -0.328125 C -0.125 -0.0625 -0.125 0 0.046875 0 C 0.78125 0.015625 1.953125 0.109375 3.03125 0.640625 C 4.328125 1.28125 4.8125 2.03125 5.109375 2.5 C 5.15625 2.5625 5.21875 2.5625 5.375 2.5625 C 5.65625 2.5625 5.671875 2.546875 5.671875 2.25 Z M 5.671875 2.0625 "/>
</g>
<g id="glyph-2-0">
<path d="M -2.4375 5.046875 C -2.171875 5.25 -2.171875 5.25 -2.03125 5.046875 C -1.296875 4.078125 -0.125 1.59375 -1.46875 -1.46875 L -1.625 -1.578125 C -1.859375 -1.75 -1.875 -1.765625 -2.046875 -1.546875 C -2.1875 -1.359375 -2.171875 -1.34375 -2.140625 -1.25 C -1.46875 0.484375 -1.796875 2.296875 -3.234375 4.28125 C -3.3125 4.390625 -3.25 4.4375 -3.046875 4.59375 Z M -2.4375 5.046875 "/>
</g>
<g id="glyph-2-1">
<path d="M -0.484375 6.75 C -0.25 6.9375 -0.21875 6.921875 -0.046875 6.6875 C 0.078125 6.515625 0.078125 6.5 0.046875 6.390625 C -0.609375 4.671875 -0.296875 2.84375 1.125 0.890625 C 1.21875 0.765625 1.15625 0.71875 0.953125 0.5625 L 0.34375 0.109375 C 0.09375 -0.078125 0.078125 -0.09375 -0.078125 0.09375 C -0.8125 1.078125 -1.96875 3.578125 -0.640625 6.640625 Z M -0.484375 6.75 "/>
</g>
<g id="glyph-2-2">
<path d="M -2.4375 5.046875 C -2.21875 5.21875 -2.171875 5.25 -2.078125 5.109375 C -1.625 4.546875 -0.828125 3.671875 0.234375 3.125 C 1.546875 2.46875 2.421875 2.546875 2.984375 2.59375 C 3.046875 2.59375 3.09375 2.53125 3.1875 2.40625 C 3.359375 2.1875 3.34375 2.1875 3.109375 2 L 2.953125 1.890625 C -0.359375 1.421875 -2.4375 3.21875 -3.171875 4.1875 C -3.3125 4.390625 -3.296875 4.40625 -3.046875 4.59375 Z M -2.4375 5.046875 "/>
</g>
<g id="glyph-2-3">
<path d="M -5.0625 3.28125 C -1.734375 3.765625 0.328125 1.9375 1.0625 0.953125 C 1.21875 0.765625 1.21875 0.765625 0.953125 0.5625 L 0.34375 0.109375 C 0.125 -0.0625 0.078125 -0.09375 -0.03125 0.03125 C -0.484375 0.609375 -1.265625 1.5 -2.34375 2.03125 C -3.625 2.6875 -4.53125 2.625 -5.078125 2.5625 C -5.15625 2.5625 -5.1875 2.609375 -5.28125 2.734375 C -5.453125 2.96875 -5.453125 3 -5.21875 3.171875 Z M -5.0625 3.28125 "/>
</g>
<g id="glyph-3-0">
<path d="M 1.09375 5.5 C 1.421875 5.5 1.4375 5.5 1.4375 5.25 C 1.4375 4.03125 0.859375 1.34375 -2.0625 -0.28125 L -2.25 -0.28125 C -2.546875 -0.28125 -2.5625 -0.28125 -2.5625 0 C -2.5625 0.234375 -2.546875 0.234375 -2.46875 0.296875 C -0.890625 1.28125 -0.046875 2.921875 0 5.359375 C 0 5.5 0.078125 5.5 0.328125 5.5 Z M 1.09375 5.5 "/>
</g>
<g id="glyph-3-1">
<path d="M 3.6875 5.671875 C 3.984375 5.671875 4 5.65625 4 5.375 C 4 5.15625 3.984375 5.140625 3.890625 5.078125 C 2.328125 4.09375 1.484375 2.453125 1.4375 0.03125 C 1.4375 -0.125 1.34375 -0.125 1.09375 -0.125 L 0.328125 -0.125 C 0.015625 -0.125 0 -0.125 0 0.125 C 0 1.34375 0.578125 4.046875 3.484375 5.671875 Z M 3.6875 5.671875 "/>
</g>
<g id="glyph-3-2">
<path d="M 1.09375 5.5 C 1.375 5.5 1.4375 5.5 1.4375 5.328125 C 1.453125 4.609375 1.546875 3.421875 2.0625 2.34375 C 2.71875 1.046875 3.46875 0.5625 3.9375 0.265625 C 4 0.234375 4 0.15625 4 0 C 4 -0.28125 3.984375 -0.28125 3.6875 -0.28125 L 3.484375 -0.28125 C 0.5625 1.34375 0 4.03125 0 5.25 C 0 5.5 0.015625 5.5 0.328125 5.5 Z M 1.09375 5.5 "/>
</g>
<g id="glyph-3-3">
<path d="M -2.0625 5.671875 C 0.875 4.046875 1.4375 1.34375 1.4375 0.125 C 1.4375 -0.125 1.421875 -0.125 1.09375 -0.125 L 0.328125 -0.125 C 0.0625 -0.125 0 -0.125 0 0.046875 C -0.015625 0.78125 -0.109375 1.953125 -0.640625 3.03125 C -1.28125 4.328125 -2.03125 4.8125 -2.5 5.109375 C -2.5625 5.15625 -2.5625 5.21875 -2.5625 5.375 C -2.5625 5.65625 -2.546875 5.671875 -2.25 5.671875 Z M -2.0625 5.671875 "/>
</g>
</g>
<clipPath id="clip-0">
<path clip-rule="nonzero" d="M 116 38 L 173 38 L 173 95 L 116 95 Z M 116 38 "/>
</clipPath>
<clipPath id="clip-1">
<path clip-rule="evenodd" d="M 0.699219 0 L 250 0 L 250 146.398438 L 0.699219 146.398438 Z M 130.339844 81.9375 L 129.394531 80.992188 L 134.875 74 L 137.207031 76.269531 Z M 130.339844 81.9375 "/>
</clipPath>
<clipPath id="clip-2">
<path clip-rule="nonzero" d="M 158 51 L 210 51 L 210 53 L 158 53 Z M 158 51 "/>
</clipPath>
<clipPath id="clip-3">
<path clip-rule="evenodd" d="M 0.699219 0 L 250 0 L 250 146.398438 L 0.699219 146.398438 Z M 210.148438 51.703125 L 210.148438 53.027344 L 201.265625 53.96875 L 201.265625 50.695312 Z M 210.148438 51.703125 "/>
</clipPath>
<clipPath id="clip-4">
<path clip-rule="nonzero" d="M 158 0 L 159 0 L 159 53 L 158 53 Z M 158 0 "/>
</clipPath>
<clipPath id="clip-5">
<path clip-rule="evenodd" d="M 0.699219 0 L 250 0 L 250 146.398438 L 0.699219 146.398438 Z M 157.867188 0.679688 L 159.191406 0.679688 L 160.136719 9.5 L 156.859375 9.5 Z M 157.867188 0.679688 "/>
</clipPath>
<clipPath id="clip-6">
<path clip-rule="nonzero" d="M 28 99 L 82 99 L 82 146.398438 L 28 146.398438 Z M 28 99 "/>
</clipPath>
<clipPath id="clip-7">
<path clip-rule="nonzero" d="M 0.699219 116 L 44 116 L 44 146.398438 L 0.699219 146.398438 Z M 0.699219 116 "/>
</clipPath>
</defs>
<g clip-path="url(#clip-0)">
<g clip-path="url(#clip-1)">
<path fill="none" stroke-width="9.4485" stroke-linecap="butt" stroke-linejoin="miter" stroke="rgb(0%, 0%, 0%)" stroke-opacity="1" stroke-miterlimit="10" d="M 1588.125 961.71875 L 1303.398438 670.078125 " transform="matrix(0.1, 0, 0, -0.1, 0, 148)"/>
</g>
</g>
<path fill-rule="evenodd" fill="rgb(0%, 0%, 0%)" fill-opacity="1" stroke-width="4.72425" stroke-linecap="butt" stroke-linejoin="miter" stroke="rgb(0%, 0%, 0%)" stroke-opacity="1" stroke-miterlimit="10" d="M 1348.75 740 L 1310.976562 677.617188 L 1372.070312 717.304688 Z M 1348.75 740 " transform="matrix(0.1, 0, 0, -0.1, 0, 148)"/>
<g clip-path="url(#clip-2)">
<g clip-path="url(#clip-3)">
<path fill="none" stroke-width="9.4485" stroke-linecap="butt" stroke-linejoin="miter" stroke="rgb(0%, 0%, 0%)" stroke-opacity="1" stroke-miterlimit="10" d="M 1584.960938 956.679688 L 2094.570312 956.679688 " transform="matrix(0.1, 0, 0, -0.1, 0, 148)"/>
</g>
</g>
<path fill-rule="evenodd" fill="rgb(0%, 0%, 0%)" fill-opacity="1" stroke-width="4.72425" stroke-linecap="butt" stroke-linejoin="miter" stroke="rgb(0%, 0%, 0%)" stroke-opacity="1" stroke-miterlimit="10" d="M 2012.65625 940.3125 L 2083.867188 956.679688 L 2012.65625 973.046875 Z M 2012.65625 940.3125 " transform="matrix(0.1, 0, 0, -0.1, 0, 148)"/>
<g clip-path="url(#clip-4)">
<g clip-path="url(#clip-5)">
<path fill="none" stroke-width="9.4485" stroke-linecap="butt" stroke-linejoin="miter" stroke="rgb(0%, 0%, 0%)" stroke-opacity="1" stroke-miterlimit="10" d="M 1584.960938 956.679688 L 1584.960938 1466.875 " transform="matrix(0.1, 0, 0, -0.1, 0, 148)"/>
</g>
</g>
<path fill-rule="evenodd" fill="rgb(0%, 0%, 0%)" fill-opacity="1" stroke-width="4.72425" stroke-linecap="butt" stroke-linejoin="miter" stroke="rgb(0%, 0%, 0%)" stroke-opacity="1" stroke-miterlimit="10" d="M 1601.367188 1385 L 1584.960938 1456.171875 L 1568.59375 1385 Z M 1601.367188 1385 " transform="matrix(0.1, 0, 0, -0.1, 0, 148)"/>
<path fill-rule="evenodd" fill="rgb(52.929688%, 81.054688%, 100%)" fill-opacity="1" d="M 87.886719 83.449219 L 104.894531 83.449219 L 104.894531 89.117188 L 110.5625 89.117188 L 110.5625 106.125 L 104.894531 106.125 L 104.894531 111.792969 L 87.886719 111.792969 L 87.886719 106.125 L 82.214844 106.125 L 82.214844 89.117188 L 87.886719 89.117188 "/>
<path fill="none" stroke-width="4.72425" stroke-linecap="butt" stroke-linejoin="miter" stroke="rgb(52.929688%, 81.054688%, 100%)" stroke-opacity="1" stroke-miterlimit="10" d="M 878.867188 645.507812 L 1048.945312 645.507812 L 1048.945312 588.828125 L 1105.625 588.828125 L 1105.625 418.75 L 1048.945312 418.75 L 1048.945312 362.070312 L 878.867188 362.070312 L 878.867188 418.75 L 822.148438 418.75 L 822.148438 588.828125 L 878.867188 588.828125 Z M 878.867188 645.507812 " transform="matrix(0.1, 0, 0, -0.1, 0, 148)"/>
<path fill="none" stroke-width="4.72425" stroke-linecap="butt" stroke-linejoin="miter" stroke="rgb(65.039062%, 65.039062%, 65.039062%)" stroke-opacity="1" stroke-miterlimit="10" d="M 652.070312 135.273438 L 1559.140625 135.273438 " transform="matrix(0.1, 0, 0, -0.1, 0, 148)"/>
<path fill="none" stroke-width="4.72425" stroke-linecap="butt" stroke-linejoin="miter" stroke="rgb(65.039062%, 65.039062%, 65.039062%)" stroke-opacity="1" stroke-miterlimit="10" d="M 652.070312 815.585938 L 652.070312 135.273438 " transform="matrix(0.1, 0, 0, -0.1, 0, 148)"/>
<path fill="none" stroke-width="4.72425" stroke-linecap="butt" stroke-linejoin="miter" stroke="rgb(65.039062%, 65.039062%, 65.039062%)" stroke-opacity="1" stroke-miterlimit="10" d="M 708.789062 815.585938 L 708.789062 135.273438 " transform="matrix(0.1, 0, 0, -0.1, 0, 148)"/>
<path fill="none" stroke-width="4.72425" stroke-linecap="butt" stroke-linejoin="miter" stroke="rgb(65.039062%, 65.039062%, 65.039062%)" stroke-opacity="1" stroke-miterlimit="10" d="M 765.46875 815.585938 L 765.46875 135.273438 " transform="matrix(0.1, 0, 0, -0.1, 0, 148)"/>
<path fill="none" stroke-width="4.72425" stroke-linecap="butt" stroke-linejoin="miter" stroke="rgb(65.039062%, 65.039062%, 65.039062%)" stroke-opacity="1" stroke-miterlimit="10" d="M 822.148438 815.585938 L 822.148438 135.273438 " transform="matrix(0.1, 0, 0, -0.1, 0, 148)"/>
<path fill="none" stroke-width="4.72425" stroke-linecap="butt" stroke-linejoin="miter" stroke="rgb(65.039062%, 65.039062%, 65.039062%)" stroke-opacity="1" stroke-miterlimit="10" d="M 878.867188 815.585938 L 878.867188 135.273438 " transform="matrix(0.1, 0, 0, -0.1, 0, 148)"/>
<path fill="none" stroke-width="4.72425" stroke-linecap="butt" stroke-linejoin="miter" stroke="rgb(65.039062%, 65.039062%, 65.039062%)" stroke-opacity="1" stroke-miterlimit="10" d="M 935.546875 815.585938 L 935.546875 135.273438 " transform="matrix(0.1, 0, 0, -0.1, 0, 148)"/>
<path fill="none" stroke-width="4.72425" stroke-linecap="butt" stroke-linejoin="miter" stroke="rgb(65.039062%, 65.039062%, 65.039062%)" stroke-opacity="1" stroke-miterlimit="10" d="M 992.226562 815.585938 L 992.226562 135.273438 " transform="matrix(0.1, 0, 0, -0.1, 0, 148)"/>
<path fill="none" stroke-width="4.72425" stroke-linecap="butt" stroke-linejoin="miter" stroke="rgb(65.039062%, 65.039062%, 65.039062%)" stroke-opacity="1" stroke-miterlimit="10" d="M 1048.945312 815.585938 L 1048.945312 135.273438 " transform="matrix(0.1, 0, 0, -0.1, 0, 148)"/>
<path fill="none" stroke-width="4.72425" stroke-linecap="butt" stroke-linejoin="miter" stroke="rgb(65.039062%, 65.039062%, 65.039062%)" stroke-opacity="1" stroke-miterlimit="10" d="M 1105.625 815.585938 L 1105.625 135.273438 " transform="matrix(0.1, 0, 0, -0.1, 0, 148)"/>
<path fill="none" stroke-width="4.72425" stroke-linecap="butt" stroke-linejoin="miter" stroke="rgb(65.039062%, 65.039062%, 65.039062%)" stroke-opacity="1" stroke-miterlimit="10" d="M 1162.304688 815.585938 L 1162.304688 135.273438 " transform="matrix(0.1, 0, 0, -0.1, 0, 148)"/>
<path fill="none" stroke-width="4.72425" stroke-linecap="butt" stroke-linejoin="miter" stroke="rgb(65.039062%, 65.039062%, 65.039062%)" stroke-opacity="1" stroke-miterlimit="10" d="M 1218.984375 815.585938 L 1218.984375 135.273438 " transform="matrix(0.1, 0, 0, -0.1, 0, 148)"/>
<path fill="none" stroke-width="4.72425" stroke-linecap="butt" stroke-linejoin="miter" stroke="rgb(65.039062%, 65.039062%, 65.039062%)" stroke-opacity="1" stroke-miterlimit="10" d="M 1275.703125 815.585938 L 1275.703125 135.273438 " transform="matrix(0.1, 0, 0, -0.1, 0, 148)"/>
<path fill="none" stroke-width="4.72425" stroke-linecap="butt" stroke-linejoin="miter" stroke="rgb(65.039062%, 65.039062%, 65.039062%)" stroke-opacity="1" stroke-miterlimit="10" d="M 1332.382812 815.585938 L 1332.382812 135.273438 " transform="matrix(0.1, 0, 0, -0.1, 0, 148)"/>
<path fill="none" stroke-width="4.72425" stroke-linecap="butt" stroke-linejoin="miter" stroke="rgb(65.039062%, 65.039062%, 65.039062%)" stroke-opacity="1" stroke-miterlimit="10" d="M 1389.0625 815.585938 L 1389.0625 135.273438 " transform="matrix(0.1, 0, 0, -0.1, 0, 148)"/>
<path fill="none" stroke-width="4.72425" stroke-linecap="butt" stroke-linejoin="miter" stroke="rgb(65.039062%, 65.039062%, 65.039062%)" stroke-opacity="1" stroke-miterlimit="10" d="M 1445.742188 815.585938 L 1445.742188 135.273438 " transform="matrix(0.1, 0, 0, -0.1, 0, 148)"/>
<path fill="none" stroke-width="4.72425" stroke-linecap="butt" stroke-linejoin="miter" stroke="rgb(65.039062%, 65.039062%, 65.039062%)" stroke-opacity="1" stroke-miterlimit="10" d="M 1502.460938 815.585938 L 1502.460938 135.273438 " transform="matrix(0.1, 0, 0, -0.1, 0, 148)"/>
<path fill="none" stroke-width="4.72425" stroke-linecap="butt" stroke-linejoin="miter" stroke="rgb(65.039062%, 65.039062%, 65.039062%)" stroke-opacity="1" stroke-miterlimit="10" d="M 1559.140625 815.585938 L 1559.140625 135.273438 " transform="matrix(0.1, 0, 0, -0.1, 0, 148)"/>
<path fill="none" stroke-width="4.72425" stroke-linecap="butt" stroke-linejoin="miter" stroke="rgb(65.039062%, 65.039062%, 65.039062%)" stroke-opacity="1" stroke-miterlimit="10" d="M 652.070312 815.585938 L 1559.140625 815.585938 " transform="matrix(0.1, 0, 0, -0.1, 0, 148)"/>
<path fill="none" stroke-width="4.72425" stroke-linecap="butt" stroke-linejoin="miter" stroke="rgb(65.039062%, 65.039062%, 65.039062%)" stroke-opacity="1" stroke-miterlimit="10" d="M 652.070312 758.90625 L 1559.140625 758.90625 " transform="matrix(0.1, 0, 0, -0.1, 0, 148)"/>
<path fill="none" stroke-width="4.72425" stroke-linecap="butt" stroke-linejoin="miter" stroke="rgb(65.039062%, 65.039062%, 65.039062%)" stroke-opacity="1" stroke-miterlimit="10" d="M 652.070312 702.1875 L 1559.140625 702.1875 " transform="matrix(0.1, 0, 0, -0.1, 0, 148)"/>
<path fill="none" stroke-width="4.72425" stroke-linecap="butt" stroke-linejoin="miter" stroke="rgb(65.039062%, 65.039062%, 65.039062%)" stroke-opacity="1" stroke-miterlimit="10" d="M 652.070312 645.507812 L 1559.140625 645.507812 " transform="matrix(0.1, 0, 0, -0.1, 0, 148)"/>
<path fill="none" stroke-width="4.72425" stroke-linecap="butt" stroke-linejoin="miter" stroke="rgb(65.039062%, 65.039062%, 65.039062%)" stroke-opacity="1" stroke-miterlimit="10" d="M 652.070312 588.828125 L 1559.140625 588.828125 " transform="matrix(0.1, 0, 0, -0.1, 0, 148)"/>
<path fill="none" stroke-width="4.72425" stroke-linecap="butt" stroke-linejoin="miter" stroke="rgb(65.039062%, 65.039062%, 65.039062%)" stroke-opacity="1" stroke-miterlimit="10" d="M 652.070312 532.109375 L 1559.140625 532.109375 " transform="matrix(0.1, 0, 0, -0.1, 0, 148)"/>
<path fill="none" stroke-width="4.72425" stroke-linecap="butt" stroke-linejoin="miter" stroke="rgb(65.039062%, 65.039062%, 65.039062%)" stroke-opacity="1" stroke-miterlimit="10" d="M 652.070312 475.429688 L 1559.140625 475.429688 " transform="matrix(0.1, 0, 0, -0.1, 0, 148)"/>
<path fill="none" stroke-width="4.72425" stroke-linecap="butt" stroke-linejoin="miter" stroke="rgb(65.039062%, 65.039062%, 65.039062%)" stroke-opacity="1" stroke-miterlimit="10" d="M 652.070312 418.75 L 1559.140625 418.75 " transform="matrix(0.1, 0, 0, -0.1, 0, 148)"/>
<path fill="none" stroke-width="4.72425" stroke-linecap="butt" stroke-linejoin="miter" stroke="rgb(65.039062%, 65.039062%, 65.039062%)" stroke-opacity="1" stroke-miterlimit="10" d="M 652.070312 362.070312 L 1559.140625 362.070312 " transform="matrix(0.1, 0, 0, -0.1, 0, 148)"/>
<path fill="none" stroke-width="4.72425" stroke-linecap="butt" stroke-linejoin="miter" stroke="rgb(65.039062%, 65.039062%, 65.039062%)" stroke-opacity="1" stroke-miterlimit="10" d="M 652.070312 305.351562 L 1559.140625 305.351562 " transform="matrix(0.1, 0, 0, -0.1, 0, 148)"/>
<path fill="none" stroke-width="4.72425" stroke-linecap="butt" stroke-linejoin="miter" stroke="rgb(65.039062%, 65.039062%, 65.039062%)" stroke-opacity="1" stroke-miterlimit="10" d="M 652.070312 248.671875 L 1559.140625 248.671875 " transform="matrix(0.1, 0, 0, -0.1, 0, 148)"/>
<path fill="none" stroke-width="4.72425" stroke-linecap="butt" stroke-linejoin="miter" stroke="rgb(65.039062%, 65.039062%, 65.039062%)" stroke-opacity="1" stroke-miterlimit="10" d="M 652.070312 191.992188 L 1559.140625 191.992188 " transform="matrix(0.1, 0, 0, -0.1, 0, 148)"/>
<path fill-rule="evenodd" fill="rgb(52.929688%, 81.054688%, 100%)" fill-opacity="1" d="M 74.71875 126.03125 C 74.71875 136.988281 65.835938 145.871094 54.878906 145.871094 C 43.921875 145.871094 35.035156 136.988281 35.035156 126.03125 C 35.035156 115.074219 43.921875 106.1875 54.878906 106.1875 C 65.835938 106.1875 74.71875 115.074219 74.71875 126.03125 "/>
<g clip-path="url(#clip-6)">
<path fill="none" stroke-width="4.72425" stroke-linecap="butt" stroke-linejoin="miter" stroke="rgb(52.929688%, 81.054688%, 100%)" stroke-opacity="1" stroke-miterlimit="10" d="M 747.1875 219.6875 C 747.1875 110.117188 658.359375 21.289062 548.789062 21.289062 C 439.21875 21.289062 350.351562 110.117188 350.351562 219.6875 C 350.351562 329.257812 439.21875 418.125 548.789062 418.125 C 658.359375 418.125 747.1875 329.257812 747.1875 219.6875 Z M 747.1875 219.6875 " transform="matrix(0.1, 0, 0, -0.1, 0, 148)"/>
</g>
<path fill="none" stroke-width="4.72425" stroke-linecap="butt" stroke-linejoin="miter" stroke="rgb(0%, 68.943787%, 0%)" stroke-opacity="1" stroke-miterlimit="10" d="M 1584.960938 959.179688 L 639.492188 399.21875 " transform="matrix(0.1, 0, 0, -0.1, 0, 148)"/>
<g clip-path="url(#clip-7)">
<path fill="none" stroke-width="4.72425" stroke-linecap="butt" stroke-linejoin="miter" stroke="rgb(0%, 68.943787%, 0%)" stroke-opacity="1" stroke-miterlimit="10" d="M 369.257812 246.757812 L 14.609375 45.195312 " transform="matrix(0.1, 0, 0, -0.1, 0, 148)"/>
</g>
<path fill-rule="evenodd" fill="rgb(0%, 68.943787%, 0%)" fill-opacity="1" stroke-width="4.72425" stroke-linecap="butt" stroke-linejoin="miter" stroke="rgb(0%, 68.943787%, 0%)" stroke-opacity="1" stroke-miterlimit="10" d="M 879.492188 532.734375 L 935.546875 532.734375 L 935.546875 588.828125 L 879.492188 588.828125 Z M 879.492188 532.734375 " transform="matrix(0.1, 0, 0, -0.1, 0, 148)"/>
<path fill-rule="evenodd" fill="rgb(72.851562%, 88.671875%, 100%)" fill-opacity="1" d="M 69.742188 119.792969 C 69.742188 124.144531 66.21875 127.667969 61.871094 127.667969 C 57.523438 127.667969 53.996094 124.144531 53.996094 119.792969 C 53.996094 115.445312 57.523438 111.921875 61.871094 111.921875 C 66.21875 111.921875 69.742188 115.445312 69.742188 119.792969 "/>
<path fill="none" stroke-width="4.72425" stroke-linecap="butt" stroke-linejoin="miter" stroke="rgb(72.851562%, 88.671875%, 100%)" stroke-opacity="1" stroke-miterlimit="10" d="M 697.421875 282.070312 C 697.421875 238.554688 662.1875 203.320312 618.710938 203.320312 C 575.234375 203.320312 539.960938 238.554688 539.960938 282.070312 C 539.960938 325.546875 575.234375 360.78125 618.710938 360.78125 C 662.1875 360.78125 697.421875 325.546875 697.421875 282.070312 Z M 697.421875 282.070312 " transform="matrix(0.1, 0, 0, -0.1, 0, 148)"/>
<path fill-rule="evenodd" fill="rgb(81.639099%, 91.796875%, 100%)" fill-opacity="1" d="M 67.792969 119.164062 C 67.792969 122.296875 65.253906 124.835938 62.121094 124.835938 C 58.992188 124.835938 56.453125 122.296875 56.453125 119.164062 C 56.453125 116.035156 58.992188 113.496094 62.121094 113.496094 C 65.253906 113.496094 67.792969 116.035156 67.792969 119.164062 "/>
<path fill="none" stroke-width="4.72425" stroke-linecap="butt" stroke-linejoin="miter" stroke="rgb(81.639099%, 91.796875%, 100%)" stroke-opacity="1" stroke-miterlimit="10" d="M 677.929688 288.359375 C 677.929688 257.03125 652.539062 231.640625 621.210938 231.640625 C 589.921875 231.640625 564.53125 257.03125 564.53125 288.359375 C 564.53125 319.648438 589.921875 345.039062 621.210938 345.039062 C 652.539062 345.039062 677.929688 319.648438 677.929688 288.359375 Z M 677.929688 288.359375 " transform="matrix(0.1, 0, 0, -0.1, 0, 148)"/>
<path fill-rule="evenodd" fill="rgb(92.96875%, 96.875%, 100%)" fill-opacity="1" d="M 65.777344 118.597656 C 65.777344 120.164062 64.507812 121.433594 62.941406 121.433594 C 61.375 121.433594 60.105469 120.164062 60.105469 118.597656 C 60.105469 117.03125 61.375 115.765625 62.941406 115.765625 C 64.507812 115.765625 65.777344 117.03125 65.777344 118.597656 "/>
<path fill="none" stroke-width="4.72425" stroke-linecap="butt" stroke-linejoin="miter" stroke="rgb(92.96875%, 96.875%, 100%)" stroke-opacity="1" stroke-miterlimit="10" d="M 657.773438 294.023438 C 657.773438 278.359375 645.078125 265.664062 629.414062 265.664062 C 613.75 265.664062 601.054688 278.359375 601.054688 294.023438 C 601.054688 309.6875 613.75 322.34375 629.414062 322.34375 C 645.078125 322.34375 657.773438 309.6875 657.773438 294.023438 Z M 657.773438 294.023438 " transform="matrix(0.1, 0, 0, -0.1, 0, 148)"/>
<path fill="none" stroke-width="4.72425" stroke-linecap="butt" stroke-linejoin="miter" stroke="rgb(0%, 68.943787%, 0%)" stroke-opacity="1" stroke-dasharray="37.794" stroke-miterlimit="10" d="M 616.796875 386.601562 L 380.585938 252.460938 " transform="matrix(0.1, 0, 0, -0.1, 0, 148)"/>
<path fill-rule="evenodd" fill="rgb(0%, 68.943787%, 0%)" fill-opacity="1" d="M 62.375 109.339844 C 62.375 109.722656 62.0625 110.03125 61.679688 110.03125 C 61.296875 110.03125 60.988281 109.722656 60.988281 109.339844 C 60.988281 108.957031 61.296875 108.644531 61.679688 108.644531 C 62.0625 108.644531 62.375 108.957031 62.375 109.339844 "/>
<path fill="none" stroke-width="4.72425" stroke-linecap="butt" stroke-linejoin="miter" stroke="rgb(0%, 68.943787%, 0%)" stroke-opacity="1" stroke-miterlimit="10" d="M 623.75 386.601562 C 623.75 382.773438 620.625 379.6875 616.796875 379.6875 C 612.96875 379.6875 609.882812 382.773438 609.882812 386.601562 C 609.882812 390.429688 612.96875 393.554688 616.796875 393.554688 C 620.625 393.554688 623.75 390.429688 623.75 386.601562 Z M 623.75 386.601562 " transform="matrix(0.1, 0, 0, -0.1, 0, 148)"/>
<path fill-rule="evenodd" fill="rgb(0%, 68.943787%, 0%)" fill-opacity="1" d="M 38.058594 123.132812 C 38.058594 123.515625 37.75 123.828125 37.367188 123.828125 C 36.984375 123.828125 36.675781 123.515625 36.675781 123.132812 C 36.675781 122.75 36.984375 122.441406 37.367188 122.441406 C 37.75 122.441406 38.058594 122.75 38.058594 123.132812 "/>
<path fill="none" stroke-width="4.72425" stroke-linecap="butt" stroke-linejoin="miter" stroke="rgb(0%, 68.943787%, 0%)" stroke-opacity="1" stroke-miterlimit="10" d="M 380.585938 248.671875 C 380.585938 244.84375 377.5 241.71875 373.671875 241.71875 C 369.84375 241.71875 366.757812 244.84375 366.757812 248.671875 C 366.757812 252.5 369.84375 255.585938 373.671875 255.585938 C 377.5 255.585938 380.585938 252.5 380.585938 248.671875 Z M 380.585938 248.671875 " transform="matrix(0.1, 0, 0, -0.1, 0, 148)"/>
<g fill="rgb(13.729858%, 12.159729%, 12.548828%)" fill-opacity="1">
<use xlink:href="#glyph-0-0" x="134.76" y="86.6"/>
</g>
<g fill="rgb(65.039062%, 65.039062%, 65.039062%)" fill-opacity="1">
<use xlink:href="#glyph-1-0" x="64.4398" y="60.0801"/>
</g>
<path fill-rule="nonzero" fill="rgb(65.039062%, 65.039062%, 65.039062%)" fill-opacity="1" d="M 69.828125 58.652344 L 104.507812 58.652344 L 104.507812 60.09375 L 69.828125 60.09375 Z M 69.828125 58.652344 "/>
<g fill="rgb(65.039062%, 65.039062%, 65.039062%)" fill-opacity="1">
<use xlink:href="#glyph-1-1" x="104.52" y="60.0801"/>
</g>
<g fill="rgb(65.039062%, 65.039062%, 65.039062%)" fill-opacity="1">
<use xlink:href="#glyph-1-2" x="109.920018" y="60.0801"/>
</g>
<path fill-rule="nonzero" fill="rgb(65.039062%, 65.039062%, 65.039062%)" fill-opacity="1" d="M 115.308594 58.652344 L 149.988281 58.652344 L 149.988281 60.09375 L 115.308594 60.09375 Z M 115.308594 58.652344 "/>
<g fill="rgb(65.039062%, 65.039062%, 65.039062%)" fill-opacity="1">
<use xlink:href="#glyph-1-3" x="150" y="60.0801"/>
</g>
<g fill="rgb(65.039062%, 65.039062%, 65.039062%)" fill-opacity="1">
<use xlink:href="#glyph-2-0" x="248.393" y="56.2496"/>
</g>
<path fill-rule="nonzero" fill="rgb(65.039062%, 65.039062%, 65.039062%)" fill-opacity="1" d="M 246.28125 61.410156 L 223.695312 91.273438 L 222.546875 90.40625 L 245.132812 60.542969 Z M 246.28125 61.410156 "/>
<g fill="rgb(65.039062%, 65.039062%, 65.039062%)" fill-opacity="1">
<use xlink:href="#glyph-2-1" x="222.551" y="90.418"/>
</g>
<g fill="rgb(65.039062%, 65.039062%, 65.039062%)" fill-opacity="1">
<use xlink:href="#glyph-2-2" x="219.293673" y="94.724959"/>
</g>
<path fill-rule="nonzero" fill="rgb(65.039062%, 65.039062%, 65.039062%)" fill-opacity="1" d="M 217.183594 99.882812 L 194.597656 129.746094 L 193.449219 128.878906 L 216.035156 99.015625 Z M 217.183594 99.882812 "/>
<g fill="rgb(65.039062%, 65.039062%, 65.039062%)" fill-opacity="1">
<use xlink:href="#glyph-2-3" x="193.452" y="128.8934"/>
</g>
<g fill="rgb(65.039062%, 65.039062%, 65.039062%)" fill-opacity="1">
<use xlink:href="#glyph-3-0" x="163.2" y="66.0801"/>
</g>
<path fill-rule="nonzero" fill="rgb(65.039062%, 65.039062%, 65.039062%)" fill-opacity="1" d="M 164.628906 71.46875 L 164.628906 94.75 L 163.1875 94.75 L 163.1875 71.46875 Z M 164.628906 71.46875 "/>
<g fill="rgb(65.039062%, 65.039062%, 65.039062%)" fill-opacity="1">
<use xlink:href="#glyph-3-1" x="163.2" y="94.7602"/>
</g>
<g fill="rgb(65.039062%, 65.039062%, 65.039062%)" fill-opacity="1">
<use xlink:href="#glyph-3-2" x="163.2" y="100.160215"/>
</g>
<path fill-rule="nonzero" fill="rgb(65.039062%, 65.039062%, 65.039062%)" fill-opacity="1" d="M 164.628906 105.546875 L 164.628906 128.828125 L 163.1875 128.828125 L 163.1875 105.546875 Z M 164.628906 105.546875 "/>
<g fill="rgb(65.039062%, 65.039062%, 65.039062%)" fill-opacity="1">
<use xlink:href="#glyph-3-3" x="163.2" y="128.8402"/>
</g>
<g fill="rgb(13.729858%, 12.159729%, 12.548828%)" fill-opacity="1">
<use xlink:href="#glyph-0-1" x="206.64" y="48.9199"/>
</g>
<g fill="rgb(13.729858%, 12.159729%, 12.548828%)" fill-opacity="1">
<use xlink:href="#glyph-0-2" x="162.3603" y="7.8801"/>
</g>
<g fill="rgb(13.729858%, 12.159729%, 12.548828%)" fill-opacity="1">
<use xlink:href="#glyph-0-3" x="224.7603" y="102.3199"/>
</g>
<g fill="rgb(13.729858%, 12.159729%, 12.548828%)" fill-opacity="1">
<use xlink:href="#glyph-0-4" x="106.2003" y="53"/>
</g>
<g fill="rgb(13.729858%, 12.159729%, 12.548828%)" fill-opacity="1">
<use xlink:href="#glyph-0-5" x="169.9202" y="103.8801"/>
</g>
</svg>
